<svg width="47" height="93" viewBox="0 0 47 93" fill="none" xmlns="http://www.w3.org/2000/svg">
<path d="M16.176 36.312C16.096 36.312 16.032 36.272 15.984 36.192C15.936 36.112 15.912 35.996 15.912 35.844L15.9 34.068C15.892 33.916 15.888 33.664 15.888 33.312C15.872 32.568 15.864 31.728 15.864 30.792V30.18C15.792 30.564 15.668 31.104 15.492 31.8C15.316 32.52 15.192 33.112 15.12 33.576V33.648L15.084 33.876C15.068 34.052 15.028 34.232 14.964 34.416C14.884 34.608 14.76 34.704 14.592 34.704C14.304 34.704 14.16 34.328 14.16 33.576C14.16 33.16 14.116 32.716 14.028 32.244C13.948 31.764 13.816 31.176 13.632 30.48L13.272 29.136L13.248 30.576C13.248 31.008 13.268 31.832 13.308 33.048L13.332 33.864L13.356 35.508C13.356 35.676 13.296 35.828 13.176 35.964C12.976 35.964 12.836 35.904 12.756 35.784C12.684 35.656 12.648 35.472 12.648 35.232L12.672 34.248C12.696 33.816 12.708 33.492 12.708 33.276L12.684 30.96L12.66 28.632C12.66 28.288 12.668 27.772 12.684 27.084L13.008 26.892C13.072 26.9 13.136 26.948 13.2 27.036C13.264 27.116 13.336 27.248 13.416 27.432C13.616 27.928 13.876 28.92 14.196 30.408C14.244 30.616 14.276 30.788 14.292 30.924C14.388 31.388 14.456 31.74 14.496 31.98L14.676 32.904L14.76 32.508L14.988 31.524C15.116 30.948 15.22 30.444 15.3 30.012C15.388 29.58 15.472 29.112 15.552 28.608C15.64 28.008 15.696 27.508 15.72 27.108V27.036C15.736 26.932 15.784 26.852 15.864 26.796C15.944 26.732 16.04 26.7 16.152 26.7C16.224 26.7 16.288 26.732 16.344 26.796C16.4 26.86 16.428 26.928 16.428 27C16.428 27.96 16.464 29.396 16.536 31.308C16.576 32.244 16.604 33.16 16.62 34.056C16.636 34.464 16.644 34.98 16.644 35.604C16.644 35.788 16.596 35.952 16.5 36.096C16.404 36.24 16.296 36.312 16.176 36.312ZM19.5735 36.228C19.3655 36.228 19.1735 36.16 18.9975 36.024C18.8215 35.896 18.6775 35.72 18.5655 35.496C18.3335 35.008 18.1895 34.476 18.1335 33.9C18.0615 33.356 18.0255 32.832 18.0255 32.328C18.0255 32.232 18.0295 32.152 18.0375 32.088V31.872C18.0375 31.832 18.0335 31.812 18.0255 31.812V31.596L18.0375 30.756C18.0455 30.5 18.0775 30.092 18.1335 29.532C18.1735 29.148 18.2655 28.776 18.4095 28.416C18.4655 28.256 18.5375 28.136 18.6255 28.056C18.7135 27.968 18.8135 27.924 18.9255 27.924C19.2455 27.924 19.5335 27.984 19.7895 28.104C20.0455 28.216 20.2615 28.376 20.4375 28.584C20.5975 28.784 20.7335 29.032 20.8455 29.328C20.9575 29.616 21.0375 29.924 21.0855 30.252C21.1335 30.588 21.1575 30.944 21.1575 31.32V31.416C21.1575 31.664 21.1615 31.888 21.1695 32.088L21.1815 32.772C21.1815 35.076 20.6455 36.228 19.5735 36.228ZM19.5255 35.724C19.6695 35.724 19.8015 35.668 19.9215 35.556C20.0415 35.436 20.1335 35.276 20.1975 35.076C20.3495 34.668 20.4415 34.228 20.4735 33.756C20.5135 33.348 20.5335 32.996 20.5335 32.7C20.5335 32.34 20.5055 31.868 20.4495 31.284C20.4015 30.668 20.3775 30.208 20.3775 29.904V29.688C20.3615 29.384 20.2575 29.12 20.0655 28.896C19.8815 28.672 19.6535 28.56 19.3815 28.56C19.1095 28.56 18.9295 28.716 18.8415 29.028C18.7615 29.276 18.7215 29.596 18.7215 29.988C18.7215 30.14 18.7255 30.268 18.7335 30.372V30.696L18.7095 31.248C18.6935 31.416 18.6855 31.6 18.6855 31.8C18.6855 32.232 18.6975 32.66 18.7215 33.084C18.7535 33.684 18.8335 34.268 18.9615 34.836C19.0895 35.428 19.2775 35.724 19.5255 35.724ZM22.8777 36.072C22.6697 36.072 22.5657 35.548 22.5657 34.5L22.5897 32.604C22.5977 32.044 22.6017 31.416 22.6017 30.72C22.6017 30.464 22.5777 30.068 22.5297 29.532C22.4897 28.948 22.4697 28.592 22.4697 28.464C22.4697 28.36 22.5137 28.268 22.6017 28.188C22.6897 28.108 22.7857 28.068 22.8897 28.068C23.1697 28.068 23.4377 28.132 23.6937 28.26C23.9577 28.38 24.1897 28.552 24.3897 28.776C24.8137 29.264 25.0937 29.8 25.2297 30.384C25.3017 30.68 25.3377 30.972 25.3377 31.26C25.3377 31.364 25.3337 31.46 25.3257 31.548L25.3137 31.872V32.532C25.3137 33.044 25.2977 33.448 25.2657 33.744C25.2177 34.144 25.1257 34.5 24.9897 34.812C24.8297 35.148 24.5977 35.448 24.2937 35.712C24.1497 35.832 23.9657 35.952 23.7417 36.072H22.8777ZM23.4057 35.46C23.5657 35.46 23.7137 35.42 23.8497 35.34C23.9857 35.252 24.1017 35.136 24.1977 34.992C24.2777 34.864 24.3497 34.704 24.4137 34.512C24.4857 34.312 24.5377 34.12 24.5697 33.936C24.6417 33.576 24.6857 33.208 24.7017 32.832C24.7097 32.736 24.7137 32.596 24.7137 32.412C24.7137 29.996 24.2457 28.736 23.3097 28.632C23.2537 28.992 23.2257 29.408 23.2257 29.88C23.2257 30.384 23.2577 31.264 23.3217 32.52C23.3777 33.632 23.4057 34.516 23.4057 35.172V35.46ZM27.1942 36.156C27.0902 36.156 26.9942 36.12 26.9062 36.048C26.8262 35.976 26.7822 35.888 26.7742 35.784V35.472V35.232C26.7662 35.16 26.7622 35.076 26.7622 34.98C26.7622 34.812 26.7502 34.556 26.7262 34.212L26.7022 33.444C26.7022 33.052 26.7142 32.468 26.7382 31.692C26.7702 30.996 26.7862 30.412 26.7862 29.94C26.7862 29.828 26.7742 29.66 26.7502 29.436C26.7262 29.204 26.7142 29.036 26.7142 28.932C26.7142 28.364 26.8822 28.08 27.2182 28.08C27.4822 28.08 27.7862 28.132 28.1302 28.236C28.4822 28.34 28.6582 28.464 28.6582 28.608C28.6582 28.688 28.6222 28.764 28.5502 28.836C28.4862 28.9 28.4062 28.952 28.3102 28.992C27.9742 28.872 27.6702 28.792 27.3982 28.752C27.4062 28.872 27.4102 29.044 27.4102 29.268C27.4102 29.588 27.4062 29.876 27.3982 30.132C27.3742 30.516 27.3622 30.804 27.3622 30.996L27.3982 31.188L27.5902 31.176C27.6542 31.168 27.7342 31.164 27.8302 31.164C28.2142 31.164 28.4062 31.276 28.4062 31.5C28.4062 31.588 28.3702 31.664 28.2982 31.728C28.2262 31.784 28.1342 31.812 28.0222 31.812C27.8782 31.812 27.7662 31.804 27.6862 31.788H27.3862C27.4022 31.996 27.4102 32.3 27.4102 32.7C27.4102 33.1 27.4062 33.46 27.3982 33.78C27.3742 34.268 27.3622 34.632 27.3622 34.872C27.3622 35.32 27.3702 35.544 27.3862 35.544L27.7822 35.532C27.9182 35.524 28.0822 35.52 28.2742 35.52C28.5782 35.52 28.7302 35.616 28.7302 35.808C28.7302 35.92 28.6782 36.004 28.5742 36.06C28.4782 36.124 28.3582 36.156 28.2142 36.156H27.1942ZM31.9003 36.192C31.6123 36.096 31.2563 36.048 30.8323 36.048C30.7043 36.128 30.5683 36.168 30.4243 36.168C30.3283 36.168 30.2443 36.124 30.1723 36.036C30.1083 35.956 30.0763 35.868 30.0763 35.772C30.0763 35.1 30.1043 34.204 30.1603 33.084C30.2083 31.892 30.2323 31 30.2323 30.408V30.324C30.1843 29.82 30.1603 29.444 30.1603 29.196C30.1603 28.436 30.3003 28.056 30.5803 28.056C30.6603 28.056 30.7283 28.088 30.7843 28.152C30.8483 28.208 30.8803 28.276 30.8803 28.356C30.8803 28.452 30.8683 28.604 30.8443 28.812C30.8203 29.012 30.8083 29.164 30.8083 29.268C30.8083 29.804 30.8123 30.288 30.8203 30.72C30.8283 31.144 30.8323 31.624 30.8323 32.16C30.7923 32.28 30.7723 32.448 30.7723 32.664V32.808L30.7483 33.756C30.7323 34.036 30.7243 34.356 30.7243 34.716C30.7243 35.268 30.8563 35.544 31.1203 35.544C31.1363 35.544 31.1603 35.544 31.1923 35.544C31.2323 35.536 31.2843 35.532 31.3483 35.532C31.4203 35.524 31.5123 35.52 31.6243 35.52C32.0563 35.52 32.2723 35.64 32.2723 35.88C32.2723 35.96 32.2363 36.028 32.1643 36.084C32.0923 36.14 32.0043 36.176 31.9003 36.192Z M1.35173 91.2475C1.20926 65.9035 1.22814 40.4284 1.34467 1.71001M1.18604 1.81882C14.1174 1.77586 26.9744 1.63533 45.5298 1.92699L1.18604 1.81882ZM1.32918 1.58824C18.9836 1.48566 36.5525 1.45324 45.5779 1.81648L1.32918 1.58824ZM45.5432 1.66175C45.5455 32.7115 45.4486 63.5275 45.5739 91.3261L45.5432 1.66175ZM45.6371 1.76102C45.7688 19.6491 45.7997 37.6913 45.6671 91.3365L45.6371 1.76102ZM45.5594 91.2315C32.5577 91.3694 19.7575 91.4565 1.36257 91.3155L45.5594 91.2315ZM45.6806 91.3901C32.5032 90.9608 19.3987 90.929 1.35282 91.2307L45.6806 91.3901ZM1.29761 91.3973C1.53694 69.8195 1.50213 48.4053 1.39147 1.66664L1.29761 91.3973Z" stroke="white"/>
</svg>
