<svg width="69" height="238" viewBox="0 0 69 238" fill="none" xmlns="http://www.w3.org/2000/svg">
<g clip-path="url(#clip0)">
<rect width="69" height="238" fill="white"/>
<path d="M63.5 120C64.5 123.198 66 136.736 66 136.736L66.5 184L67.5 208.5V223.5L66 230.982L64.5 234.5L59 236L53.5 236.997H14.5L6.5 235.5L2.5 234L0.962372 228.5L1 224L0.962372 219L0.5 208.924L0.962372 206.919L1.5 134.731L2.5 126.71C2.5 126.71 4.53728 115.117 6 112.673C9 107.66 19.1745 76.3338 20.5 72.5684C21.473 69.8043 21.6701 66.4894 22 63C22.2355 60.5092 22.5 58 23 56C23.8754 54.634 26 58.0305 30.5 57.5292C33.9674 57.5294 35.5 55.0225 39 55.0227C41 55.0228 40.9223 54.734 44.5 56C45.3751 56.3097 45.2748 57.7275 45.5 59.5C45.8913 62.5798 46.625 66.5 47 68C49.1229 76.4914 49.0641 80.7607 50.5 84C52.5 88.5119 56.8179 100.436 58.5 104.652C60.5 109.665 62.5 116.802 63.5 120Z" stroke="black"/>
</g>
<defs>
<clipPath id="clip0">
<rect width="69" height="238" fill="white"/>
</clipPath>
</defs>
</svg>
