<svg width="69" height="238" viewBox="0 0 69 238" fill="none" xmlns="http://www.w3.org/2000/svg">
<rect width="69" height="238" fill="white"/>
<path d="M1.5 135.5V229.5L3.5 233.5L8.5 235.5L14 236.5H53L61 235.5L66 233.5L67 227L67.5 223V218L67 207.5L66.5376 205.5L66 133.5L65 125.5C65 125.5 62.9627 113.938 61.5 111.5C58.5 106.5 48.3255 75.2556 47 71.5001C45.3324 66.7752 47.0523 58.9724 44.5 55.0002C43.6246 53.6377 41.5 52 37 51.5C33.5326 51.5002 30.0652 52.1056 28.5 53C25 55.0002 27.5777 53.7374 24 55.0002C21.6045 55.8456 22.1016 65.1953 21.5 67C18.7386 75.2841 18.9359 80.7692 17.5 84C15.5 88.5002 10.6821 99.2949 9 103.5C7 108.5 5.5 119 4 121C2.5 123 1.5 135.5 1.5 135.5Z" stroke="black"/>
</svg>
