<svg width="69" height="238" viewBox="0 0 69 238" fill="none" xmlns="http://www.w3.org/2000/svg">
<rect width="69" height="238" fill="white"/>
<path d="M1.5 135.5V229.5L3.5 233.5L8.5 235.5L14 236.5H53L61 235.5L66 233.5L67 227L67.5 223V218L67 207.5L66.5376 205.5L66 133.5L65 125.5C65 125.5 62.9627 113.938 61.5 111.5C58.5 106.5 48.3255 75.2555 47 71.5C45.3324 66.7751 45.5523 64.4723 43 60.5C40.9608 57.3262 37.0675 56.5018 36 56C34.0312 55.0745 28.0777 53.2373 24.5 54.5C22.1045 55.3455 22.1016 65.1952 21.5 66.9999C18.7386 75.284 18.9359 80.7691 17.5 83.9999C15.5 88.5001 10.6821 99.2948 9 103.5C7 108.5 5.5 119 4 121C2.5 123 1.5 135.5 1.5 135.5Z" stroke="black"/>
</svg>
