<svg width="145.301" height="83.128" viewBox="0 0 145.301 83.128" xmlns="http://www.w3.org/2000/svg"><g id="svgGroup" stroke-linecap="round" fill-rule="evenodd" font-size="9pt" stroke="#000" stroke-width="0.25mm" fill="none" style="stroke:#000;stroke-width:0.25mm;fill:none"><path d="M 109 76.928 L 109 70.528 L 109 64.128 Q 109 59.128 108.3 51.028 Q 107.5 41.928 107.5 38.528 L 107.7 32.328 Q 107.9 29.628 107.9 26.228 Q 107.5 27.528 104.6 40.028 Q 101.7 52.128 98.6 62.428 A 30.294 30.294 0 0 1 94.736 71.69 A 1.49 1.49 0 0 1 93.7 72.328 Q 91.8 72.328 90.65 71.178 Q 89.5 70.028 89.5 68.028 A 60.022 60.022 0 0 0 87.822 57.299 A 286.755 286.755 0 0 0 85.95 49.328 Q 82.4 35.028 79.5 25.928 L 78.9 37.228 Q 78.1 51.528 77.8 61.028 A 765.825 765.825 0 0 0 77.601 73.18 A 135.015 135.015 0 0 0 77.6 73.628 Q 77.6 74.428 77.7 75.128 L 77.7 76.528 Q 77.7 78.228 77 79.078 Q 76.3 79.928 74.4 79.928 A 2.927 2.927 0 0 1 72.5 79.178 Q 71.6 78.428 71.6 77.528 A 343.174 343.174 0 0 1 72.375 57.596 A 896.64 896.64 0 0 1 73.1 46.928 A 608.218 608.218 0 0 0 74.481 22.872 A 205.186 205.186 0 0 0 74.6 16.328 Q 74 15.428 74 14.428 Q 74 13.228 75.15 12.578 Q 76.3 11.928 77.9 11.928 Q 79.2 11.928 82.7 21.328 Q 86.2 30.728 89.7 42.628 A 238.699 238.699 0 0 1 93.901 58.352 A 59.877 59.877 0 0 1 94.2 59.828 Q 95 57.128 95.5 54.828 L 96.1 52.428 Q 99.3 38.428 102.5 27.128 Q 104.4 20.228 106.2 16.328 Q 108 12.128 109.5 12.128 Q 110.9 12.128 112.05 12.878 Q 113.2 13.628 113.2 14.828 Q 113.2 22.028 113.8 36.428 Q 114.5 49.828 114.5 57.228 L 114.4 62.528 L 114.2 67.828 Q 114.2 69.028 114.5 71.428 L 114.8 74.928 Q 114.9 75.828 114.95 76.328 Q 115 76.828 115 76.928 Q 115.5 78.228 115.5 78.828 Q 115.5 80.528 114.5 81.828 Q 113.5 83.128 112.1 83.128 Q 109 83.128 109 76.928 Z M 5 14.528 L 5 47.328 Q 5 51.528 5.8 61.628 A 412.964 412.964 0 0 1 6.475 74.354 A 53.802 53.802 0 0 1 6.5 75.828 Q 6.5 76.728 5.4 77.378 Q 4.3 78.028 2.9 78.028 Q 0.8 78.028 0.8 76.428 L 1 73.528 Q 1.2 70.328 1.2 69.328 Q 1.2 64.028 0.6 52.528 Q 0 40.828 0 38.328 L 0 25.528 Q 0 22.428 0.3 16.328 Q 0.7 11.028 0.7 7.128 L 0.7 6.528 Q 0.7 1.528 2.9 1.528 Q 4.2 1.528 6.2 5.928 Q 9.5 13.128 14.6 31.728 Q 17.5 42.528 21.4 59.528 A 0.268 0.268 0 0 0 21.394 59.507 Q 21.394 59.527 22.298 63.41 A 11242.302 11242.302 0 0 0 23 66.428 L 23.1 66.928 Q 23.1 57.228 23.3 49.528 L 23.5 32.128 L 23.5 2.528 Q 23.9 0.028 26.7 0.028 Q 29.4 0.028 29.4 3.928 L 29.4 4.528 Q 28.8 5.728 28.8 7.428 A 730.486 730.486 0 0 1 28.57 22.85 A 1848.491 1848.491 0 0 1 28.5 25.828 A 958.853 958.853 0 0 0 28.205 42.781 A 307.113 307.113 0 0 0 28.2 44.428 L 28.2 74.928 Q 28.2 76.528 27.35 77.978 Q 26.5 79.428 25.3 79.428 Q 23.3 79.428 17.1 58.828 Q 10.1 34.728 5 14.528 Z M 129 76.128 L 129 73.528 L 129 71.528 Q 128.9 70.628 128.9 69.428 Q 128.9 67.328 128.6 63.028 L 128.4 56.628 Q 128.4 51.728 128.7 42.028 Q 129.1 33.328 129.1 27.428 Q 129.1 26.028 128.8 23.228 Q 128.5 20.328 128.5 19.028 Q 128.5 11.928 132.7 11.928 Q 136 11.928 140.35 13.228 Q 144.7 14.528 144.7 16.328 Q 144.7 17.328 143.85 18.178 Q 143 19.028 141.8 19.528 Q 137.6 18.028 134.2 17.528 Q 134.3 19.028 134.3 21.828 Q 134.3 25.828 134.2 29.028 Q 133.9 33.828 133.9 36.228 L 134.2 37.828 L 135.8 37.728 Q 136.6 37.628 137.8 37.628 Q 142.6 37.628 142.6 40.428 Q 142.6 41.528 141.7 42.278 Q 140.8 43.028 139.4 43.028 Q 137.6 43.028 136.6 42.828 L 134.1 42.828 Q 134.3 45.428 134.3 50.428 Q 134.3 55.428 134.2 59.428 Q 133.9 65.528 133.9 68.528 A 32.632 32.632 0 0 0 134.091 74.125 A 0.016 0.016 0 0 0 134.1 74.128 L 137.4 74.028 Q 139.1 73.928 141.5 73.928 Q 145.3 73.928 145.3 76.328 Q 145.3 77.728 144.05 78.478 Q 142.8 79.228 141 79.228 L 132.5 79.228 Q 131.2 79.228 130.15 78.328 Q 129.1 77.428 129 76.128 Z M 56.1 65.328 L 55.7 63.228 L 45.8 61.728 Q 45.2 64.028 44.1 71.028 Q 43.5 75.928 42.2 77.528 Q 41.5 78.428 40.2 78.428 Q 39 78.428 38 77.678 Q 37 76.928 37 75.828 L 37.2 75.328 L 37.3 74.928 Q 43.9 49.228 47.3 24.228 Q 47.3 23.828 47.4 22.878 Q 47.5 21.928 47.6 20.128 Q 47.9 16.428 48.25 14.228 Q 48.6 12.028 49.4 10.928 L 52.8 10.928 Q 54.2 10.928 55.2 11.578 Q 56.2 12.228 56.2 13.428 A 138.665 138.665 0 0 0 57.381 28.99 A 357.993 357.993 0 0 0 58.3 36.028 Q 60.3 51.428 60.3 57.628 Q 60.3 58.228 60.8 60.728 Q 61.3 63.028 61.3 63.728 Q 61.3 64.428 62.3 69.728 Q 63.2 74.528 63.2 75.928 L 63.2 76.028 Q 63.2 78.228 61.6 78.828 Q 59.3 78.828 58.2 78.128 Q 57.1 77.428 57.1 75.528 Q 57.1 72.528 56.1 65.328 Z M 53.1 32.928 L 52.1 22.528 A 1168.434 1168.434 0 0 0 47.78 47.411 A 416.33 416.33 0 0 0 46.2 58.028 Q 47.7 59.028 55 59.628 Q 54.7 58.128 54.7 55.928 Q 54.7 46.928 53.1 32.928 Z" vector-effect="non-scaling-stroke"/></g></svg>