<svg width="69" height="238" viewBox="0 0 69 238" fill="none" xmlns="http://www.w3.org/2000/svg">
<rect width="69" height="238" fill="white"/>
<path d="M28.9104 169.312C28.8304 169.312 28.7664 169.272 28.7184 169.192C28.6704 169.112 28.6464 168.996 28.6464 168.844L28.6344 167.068C28.6264 166.916 28.6224 166.664 28.6224 166.312C28.6064 165.568 28.5984 164.728 28.5984 163.792V163.18C28.5264 163.564 28.4024 164.104 28.2264 164.8C28.0504 165.52 27.9264 166.112 27.8544 166.576V166.648L27.8184 166.876C27.8024 167.052 27.7624 167.232 27.6984 167.416C27.6184 167.608 27.4944 167.704 27.3264 167.704C27.0384 167.704 26.8944 167.328 26.8944 166.576C26.8944 166.16 26.8504 165.716 26.7624 165.244C26.6824 164.764 26.5504 164.176 26.3664 163.48L26.0064 162.136L25.9824 163.576C25.9824 164.008 26.0024 164.832 26.0424 166.048L26.0664 166.864L26.0904 168.508C26.0904 168.676 26.0304 168.828 25.9104 168.964C25.7104 168.964 25.5704 168.904 25.4904 168.784C25.4184 168.656 25.3824 168.472 25.3824 168.232L25.4064 167.248C25.4304 166.816 25.4424 166.492 25.4424 166.276L25.4184 163.96L25.3944 161.632C25.3944 161.288 25.4024 160.772 25.4184 160.084L25.7424 159.892C25.8064 159.9 25.8704 159.948 25.9344 160.036C25.9984 160.116 26.0704 160.248 26.1504 160.432C26.3504 160.928 26.6104 161.92 26.9304 163.408C26.9784 163.616 27.0104 163.788 27.0264 163.924C27.1224 164.388 27.1904 164.74 27.2304 164.98L27.4104 165.904L27.4944 165.508L27.7224 164.524C27.8504 163.948 27.9544 163.444 28.0344 163.012C28.1224 162.58 28.2064 162.112 28.2864 161.608C28.3744 161.008 28.4304 160.508 28.4544 160.108V160.036C28.4704 159.932 28.5184 159.852 28.5984 159.796C28.6784 159.732 28.7744 159.7 28.8864 159.7C28.9584 159.7 29.0224 159.732 29.0784 159.796C29.1344 159.86 29.1624 159.928 29.1624 160C29.1624 160.96 29.1984 162.396 29.2704 164.308C29.3104 165.244 29.3384 166.16 29.3544 167.056C29.3704 167.464 29.3784 167.98 29.3784 168.604C29.3784 168.788 29.3304 168.952 29.2344 169.096C29.1384 169.24 29.0304 169.312 28.9104 169.312ZM32.3079 169.228C32.0999 169.228 31.9079 169.16 31.7319 169.024C31.5559 168.896 31.4119 168.72 31.2999 168.496C31.0679 168.008 30.9239 167.476 30.8679 166.9C30.7959 166.356 30.7599 165.832 30.7599 165.328C30.7599 165.232 30.7639 165.152 30.7719 165.088V164.872C30.7719 164.832 30.7679 164.812 30.7599 164.812V164.596L30.7719 163.756C30.7799 163.5 30.8119 163.092 30.8679 162.532C30.9079 162.148 30.9999 161.776 31.1439 161.416C31.1999 161.256 31.2719 161.136 31.3599 161.056C31.4479 160.968 31.5479 160.924 31.6599 160.924C31.9799 160.924 32.2679 160.984 32.5239 161.104C32.7799 161.216 32.9959 161.376 33.1719 161.584C33.3319 161.784 33.4679 162.032 33.5799 162.328C33.6919 162.616 33.7719 162.924 33.8199 163.252C33.8679 163.588 33.8919 163.944 33.8919 164.32V164.416C33.8919 164.664 33.8959 164.888 33.9039 165.088L33.9159 165.772C33.9159 168.076 33.3799 169.228 32.3079 169.228ZM32.2599 168.724C32.4039 168.724 32.5359 168.668 32.6559 168.556C32.7759 168.436 32.8679 168.276 32.9319 168.076C33.0839 167.668 33.1759 167.228 33.2079 166.756C33.2479 166.348 33.2679 165.996 33.2679 165.7C33.2679 165.34 33.2399 164.868 33.1839 164.284C33.1359 163.668 33.1119 163.208 33.1119 162.904V162.688C33.0959 162.384 32.9919 162.12 32.7999 161.896C32.6159 161.672 32.3879 161.56 32.1159 161.56C31.8439 161.56 31.6639 161.716 31.5759 162.028C31.4959 162.276 31.4559 162.596 31.4559 162.988C31.4559 163.14 31.4599 163.268 31.4679 163.372V163.696L31.4439 164.248C31.4279 164.416 31.4199 164.6 31.4199 164.8C31.4199 165.232 31.4319 165.66 31.4559 166.084C31.4879 166.684 31.5679 167.268 31.6959 167.836C31.8239 168.428 32.0119 168.724 32.2599 168.724ZM35.6121 169.072C35.4041 169.072 35.3001 168.548 35.3001 167.5L35.3241 165.604C35.3321 165.044 35.3361 164.416 35.3361 163.72C35.3361 163.464 35.3121 163.068 35.2641 162.532C35.2241 161.948 35.2041 161.592 35.2041 161.464C35.2041 161.36 35.2481 161.268 35.3361 161.188C35.4241 161.108 35.5201 161.068 35.6241 161.068C35.9041 161.068 36.1721 161.132 36.4281 161.26C36.6921 161.38 36.9241 161.552 37.1241 161.776C37.5481 162.264 37.8281 162.8 37.9641 163.384C38.0361 163.68 38.0721 163.972 38.0721 164.26C38.0721 164.364 38.0681 164.46 38.0601 164.548L38.0481 164.872V165.532C38.0481 166.044 38.0321 166.448 38.0001 166.744C37.9521 167.144 37.8601 167.5 37.7241 167.812C37.5641 168.148 37.3321 168.448 37.0281 168.712C36.8841 168.832 36.7001 168.952 36.4761 169.072H35.6121ZM36.1401 168.46C36.3001 168.46 36.4481 168.42 36.5841 168.34C36.7201 168.252 36.8361 168.136 36.9321 167.992C37.0121 167.864 37.0841 167.704 37.1481 167.512C37.2201 167.312 37.2721 167.12 37.3041 166.936C37.3761 166.576 37.4201 166.208 37.4361 165.832C37.4441 165.736 37.4481 165.596 37.4481 165.412C37.4481 162.996 36.9801 161.736 36.0441 161.632C35.9881 161.992 35.9601 162.408 35.9601 162.88C35.9601 163.384 35.9921 164.264 36.0561 165.52C36.1121 166.632 36.1401 167.516 36.1401 168.172V168.46ZM39.9285 169.156C39.8245 169.156 39.7285 169.12 39.6405 169.048C39.5605 168.976 39.5165 168.888 39.5085 168.784V168.472V168.232C39.5005 168.16 39.4965 168.076 39.4965 167.98C39.4965 167.812 39.4845 167.556 39.4605 167.212L39.4365 166.444C39.4365 166.052 39.4485 165.468 39.4725 164.692C39.5045 163.996 39.5205 163.412 39.5205 162.94C39.5205 162.828 39.5085 162.66 39.4845 162.436C39.4605 162.204 39.4485 162.036 39.4485 161.932C39.4485 161.364 39.6165 161.08 39.9525 161.08C40.2165 161.08 40.5205 161.132 40.8645 161.236C41.2165 161.34 41.3925 161.464 41.3925 161.608C41.3925 161.688 41.3565 161.764 41.2845 161.836C41.2205 161.9 41.1405 161.952 41.0445 161.992C40.7085 161.872 40.4045 161.792 40.1325 161.752C40.1405 161.872 40.1445 162.044 40.1445 162.268C40.1445 162.588 40.1405 162.876 40.1325 163.132C40.1085 163.516 40.0965 163.804 40.0965 163.996L40.1325 164.188L40.3245 164.176C40.3885 164.168 40.4685 164.164 40.5645 164.164C40.9485 164.164 41.1405 164.276 41.1405 164.5C41.1405 164.588 41.1045 164.664 41.0325 164.728C40.9605 164.784 40.8685 164.812 40.7565 164.812C40.6125 164.812 40.5005 164.804 40.4205 164.788H40.1205C40.1365 164.996 40.1445 165.3 40.1445 165.7C40.1445 166.1 40.1405 166.46 40.1325 166.78C40.1085 167.268 40.0965 167.632 40.0965 167.872C40.0965 168.32 40.1045 168.544 40.1205 168.544L40.5165 168.532C40.6525 168.524 40.8165 168.52 41.0085 168.52C41.3125 168.52 41.4645 168.616 41.4645 168.808C41.4645 168.92 41.4125 169.004 41.3085 169.06C41.2125 169.124 41.0925 169.156 40.9485 169.156H39.9285ZM44.6347 169.192C44.3467 169.096 43.9907 169.048 43.5667 169.048C43.4387 169.128 43.3027 169.168 43.1587 169.168C43.0627 169.168 42.9787 169.124 42.9067 169.036C42.8427 168.956 42.8107 168.868 42.8107 168.772C42.8107 168.1 42.8387 167.204 42.8947 166.084C42.9427 164.892 42.9667 164 42.9667 163.408V163.324C42.9187 162.82 42.8947 162.444 42.8947 162.196C42.8947 161.436 43.0347 161.056 43.3147 161.056C43.3947 161.056 43.4627 161.088 43.5187 161.152C43.5827 161.208 43.6147 161.276 43.6147 161.356C43.6147 161.452 43.6027 161.604 43.5787 161.812C43.5547 162.012 43.5427 162.164 43.5427 162.268C43.5427 162.804 43.5467 163.288 43.5547 163.72C43.5627 164.144 43.5667 164.624 43.5667 165.16C43.5267 165.28 43.5067 165.448 43.5067 165.664V165.808L43.4827 166.756C43.4667 167.036 43.4587 167.356 43.4587 167.716C43.4587 168.268 43.5907 168.544 43.8547 168.544C43.8707 168.544 43.8947 168.544 43.9267 168.544C43.9667 168.536 44.0187 168.532 44.0827 168.532C44.1547 168.524 44.2467 168.52 44.3587 168.52C44.7907 168.52 45.0067 168.64 45.0067 168.88C45.0067 168.96 44.9707 169.028 44.8987 169.084C44.8267 169.14 44.7387 169.176 44.6347 169.192Z" fill="black"/>
</svg>
