<svg width="295.1" height="78.101" viewBox="0 0 295.1 78.101" xmlns="http://www.w3.org/2000/svg"><g id="svgGroup" stroke-linecap="round" fill-rule="evenodd" font-size="9pt" stroke="#000" stroke-width="0.25mm" fill="none" style="stroke:#000;stroke-width:0.25mm;fill:none"><path d="M 104.2 78.101 L 102.8 77.601 Q 101.6 76.301 100.2 70.701 Q 98.8 65.101 97.6 58.101 Q 96.8 52.401 95.3 46.801 Q 94.1 41.801 93 41.801 L 92.7 41.801 Q 90.5 41.801 90.5 43.201 Q 90.5 50.401 91.3 65.101 Q 91.7 74.101 92.2 75.601 L 91.4 77.301 L 90 77.301 L 89.2 76.501 Q 87.6 30.301 87.6 13.501 Q 87.6 12.401 87.75 11.701 Q 87.9 11.001 88.4 10.401 Q 88.8 9.701 89.8 9.701 Q 94.9 9.701 98 12.201 Q 101.1 14.701 101.1 19.401 L 101.1 26.701 Q 101.1 28.601 99.85 31.801 Q 98.6 35.001 97.1 37.701 L 95.8 40.201 Q 96.9 45.301 100.15 58.551 Q 103.4 71.801 103.7 72.601 Q 103.8 72.701 103.95 73.101 Q 104.1 73.501 104.6 74.301 Q 105.3 75.701 105.3 76.701 Q 105.3 78.101 104.2 78.101 Z M 0.1 33.601 L 0.1 28.301 Q 0 26.001 0 23.201 Q 0 18.001 0.6 12.901 Q 1 10.401 1.65 8.601 Q 2.3 6.801 3.5 5.101 Q 5.7 1.701 10.1 0.601 Q 12.4 0.001 15.2 0.001 Q 17.1 0.001 19.05 1.101 Q 21 2.201 21 3.701 Q 21 4.801 19.4 4.801 Q 18.8 4.801 17.1 4.101 Q 15.6 3.401 14.4 3.401 Q 11.6 3.401 9.35 4.551 Q 7.1 5.701 5.8 7.601 Q 4.7 9.201 3.9 12.001 Q 3.1 14.801 2.9 17.601 Q 2.6 20.101 2.6 23.601 L 2.7 29.201 Q 2.8 31.601 2.8 34.401 Q 2.8 41.301 4.2 54.701 A 117.879 117.879 0 0 0 6.078 67.785 A 9.055 9.055 0 0 0 6.9 70.201 Q 8.1 72.101 10.45 73.101 Q 12.8 74.101 15.4 74.101 Q 20 74.101 22.4 71.201 Q 23.3 70.001 24.3 70.001 Q 25.2 70.001 25.2 71.401 Q 25.2 73.201 24.1 74.551 Q 23 75.901 21.1 76.601 Q 17.9 78.001 14.1 78.001 Q 11.3 78.001 8.2 75.801 Q 5.1 73.601 3.8 70.801 Q 2.6 68.201 1.35 54.301 Q 0.1 40.401 0.1 33.601 Z M 203 74.701 L 203 61.601 Q 203 60.401 197.9 59.401 Q 192.8 58.401 189.5 58.401 Q 189.3 58.401 188.85 59.901 Q 188.4 61.401 188.2 62.101 Q 186.9 67.301 185.6 73.201 L 185.1 75.401 Q 184.9 76.201 184.1 76.201 Q 183.3 76.201 182.65 75.701 Q 182 75.201 182 74.501 L 182.1 74.301 L 182.1 74.201 L 183.2 69.201 Q 184.4 64.501 185.3 60.001 Q 186.3 54.901 186.8 53.401 Q 187.6 50.101 190 36.901 L 190.6 33.601 Q 193.2 18.201 194.2 14.201 Q 194.7 11.801 196 7.101 Q 196.5 5.101 197.4 3.101 Q 198.3 1.401 198.9 1.401 Q 200.5 1.401 201.2 2.401 Q 201.7 3.301 202.75 12.301 Q 203.8 21.301 204.6 30.501 L 205.9 47.101 Q 205.9 51.401 206.5 60.101 Q 207.1 68.901 207.1 73.201 L 207.1 73.601 Q 207.1 74.701 206.8 75.601 Q 206.4 76.401 204.9 76.401 Q 204.1 76.401 203.55 75.901 Q 203 75.401 203 74.701 Z M 36 75.501 L 35.2 75.501 Q 33 75.501 32.4 74.501 Q 32.4 73.801 33.2 73.301 L 33.7 72.801 L 36.6 72.801 L 37 72.401 L 37.2 71.501 L 37.3 70.301 Q 37.3 64.201 37 59.401 L 36.8 55.701 L 36.6 48.401 Q 36.6 44.501 36.9 36.701 L 37.1 25.101 Q 37.1 17.501 36.6 13.501 Q 35.7 13.201 33.6 13.201 L 32.5 13.301 Q 31.9 13.401 31.2 13.401 Q 29.3 13.401 29.3 11.701 Q 29.3 11.301 30.2 10.901 Q 31.1 10.501 31.7 10.501 Q 35.5 10.501 39.3 10.901 Q 41.6 11.001 43.9 11.801 Q 45.7 12.401 45.7 13.501 Q 45.7 13.701 45.4 14.301 L 43.1 14.501 Q 42.4 13.901 40.2 13.901 L 39.7 14.201 Q 40 15.101 40 19.501 Q 40 26.101 39.9 31.401 L 39.7 43.301 Q 39.7 47.801 40.1 54.201 Q 40.4 61.501 40.4 65.201 L 40.4 66.501 Q 40.3 67.201 40.3 68.301 Q 40.3 70.601 40.6 71.101 L 40.5 71.301 Q 40.5 72.301 42.7 72.301 Q 43.6 72.301 44.2 72.201 L 45.7 72.201 Q 48.6 72.201 48.6 73.601 Q 48.6 74.501 48 75.051 Q 47.4 75.601 46.4 75.601 Q 45.5 75.601 44.8 75.401 Q 44 75.301 43.1 75.301 Q 42.5 75.301 41.3 75.801 Q 40.1 76.401 39.5 76.401 Q 37.2 76.401 36.8 75.401 Q 36.3 75.401 36 75.501 Z M 118.4 75.501 L 117.6 75.501 Q 115.4 75.501 114.8 74.501 Q 114.8 73.801 115.6 73.301 L 116.1 72.801 L 119 72.801 L 119.4 72.401 L 119.6 71.501 L 119.7 70.301 Q 119.7 64.201 119.4 59.401 L 119.2 55.701 L 119 48.401 Q 119 44.501 119.3 36.701 L 119.5 25.101 Q 119.5 17.501 119 13.501 Q 118.1 13.201 116 13.201 L 114.9 13.301 Q 114.3 13.401 113.6 13.401 Q 111.7 13.401 111.7 11.701 Q 111.7 11.301 112.6 10.901 Q 113.5 10.501 114.1 10.501 Q 117.9 10.501 121.7 10.901 Q 124 11.001 126.3 11.801 Q 128.1 12.401 128.1 13.501 Q 128.1 13.701 127.8 14.301 L 125.5 14.501 Q 124.8 13.901 122.6 13.901 L 122.1 14.201 Q 122.4 15.101 122.4 19.501 Q 122.4 26.101 122.3 31.401 L 122.1 43.301 Q 122.1 47.801 122.5 54.201 Q 122.8 61.501 122.8 65.201 L 122.8 66.501 Q 122.7 67.201 122.7 68.301 Q 122.7 70.601 123 71.101 L 122.9 71.301 Q 122.9 72.301 125.1 72.301 Q 126 72.301 126.6 72.201 L 128.1 72.201 Q 131 72.201 131 73.601 Q 131 74.501 130.4 75.051 Q 129.8 75.601 128.8 75.601 Q 127.9 75.601 127.2 75.401 Q 126.4 75.301 125.5 75.301 Q 124.9 75.301 123.7 75.801 Q 122.5 76.401 121.9 76.401 Q 119.6 76.401 119.2 75.401 Q 118.7 75.401 118.4 75.501 Z M 251.5 75.501 L 250.7 75.501 Q 248.5 75.501 247.9 74.501 Q 247.9 73.801 248.7 73.301 L 249.2 72.801 L 252.1 72.801 L 252.5 72.401 L 252.7 71.501 L 252.8 70.301 Q 252.8 64.201 252.5 59.401 L 252.3 55.701 L 252.1 48.401 Q 252.1 44.501 252.4 36.701 L 252.6 25.101 Q 252.6 17.501 252.1 13.501 Q 251.2 13.201 249.1 13.201 L 248 13.301 Q 247.4 13.401 246.7 13.401 Q 244.8 13.401 244.8 11.701 Q 244.8 11.301 245.7 10.901 Q 246.6 10.501 247.2 10.501 Q 251 10.501 254.8 10.901 Q 257.1 11.001 259.4 11.801 Q 261.2 12.401 261.2 13.501 Q 261.2 13.701 260.9 14.301 L 258.6 14.501 Q 257.9 13.901 255.7 13.901 L 255.2 14.201 Q 255.5 15.101 255.5 19.501 Q 255.5 26.101 255.4 31.401 L 255.2 43.301 Q 255.2 47.801 255.6 54.201 Q 255.9 61.501 255.9 65.201 L 255.9 66.501 Q 255.8 67.201 255.8 68.301 Q 255.8 70.601 256.1 71.101 L 256 71.301 Q 256 72.301 258.2 72.301 Q 259.1 72.301 259.7 72.201 L 261.2 72.201 Q 264.1 72.201 264.1 73.601 Q 264.1 74.501 263.5 75.051 Q 262.9 75.601 261.9 75.601 Q 261 75.601 260.3 75.401 Q 259.5 75.301 258.6 75.301 Q 258 75.301 256.8 75.801 Q 255.6 76.401 255 76.401 Q 252.7 76.401 252.3 75.401 Q 251.8 75.401 251.5 75.501 Z M 65.5 75.801 L 64.4 75.001 L 64.3 71.301 Q 64.2 69.701 64.2 67.701 Q 64.2 66.701 64.3 66.001 L 64.4 64.201 Q 64.4 63.201 64 61.801 Q 64 55.101 63 36.901 A 1212.077 1212.077 0 0 1 62.102 19.315 A 259.086 259.086 0 0 1 61.9 13.001 Q 55.7 13.001 53.6 12.701 Q 51.6 12.201 51.6 11.101 Q 52.1 10.001 53.5 10.001 Q 56.5 10.001 62.2 10.401 Q 67.4 10.901 70.9 10.901 L 73 10.901 L 75.1 10.801 Q 76.9 10.801 76.9 12.101 Q 76.9 12.701 76.25 13.051 Q 75.6 13.401 74.7 13.401 Q 72.7 13.401 70.5 13.201 L 66.2 13.001 Q 65.8 13.001 65.8 13.301 Q 65.7 13.601 65.7 15.201 A 396.931 396.931 0 0 0 66.32 34.311 A 1055.375 1055.375 0 0 0 66.9 44.601 A 961.556 961.556 0 0 1 67.846 65.609 A 273.628 273.628 0 0 1 68 73.901 Q 68 74.601 67.15 75.201 Q 66.3 75.801 65.5 75.801 Z M 150 78.001 L 147.6 77.101 Q 145.7 76.501 144.35 75.401 Q 143 74.301 141.8 72.101 Q 139.7 68.101 139.3 60.601 Q 139.1 57.201 139.1 54.601 L 139.1 43.201 Q 139.1 36.701 139.5 30.601 Q 139.8 26.101 140.4 23.001 Q 141 19.901 142.3 16.801 Q 143.7 13.601 145.4 12.301 Q 146.1 11.701 148.1 10.901 Q 149.4 10.401 150.6 9.801 L 154.6 9.801 L 154.9 9.801 Q 155 9.901 155.2 9.901 L 155.7 10.001 L 156.1 10.301 Q 156.4 10.601 156.4 10.701 Q 156.5 10.901 156.5 11.301 L 155.2 12.801 L 151 12.801 Q 149.1 12.801 147.55 14.651 Q 146 16.501 145.2 19.301 Q 144.4 21.801 143.9 25.201 Q 143.4 28.601 143.3 31.101 Q 143.1 34.301 143.1 35.501 L 142.9 36.001 Q 142.9 41.601 142.7 46.101 L 142.5 56.201 Q 142.5 60.601 143.1 64.301 Q 143.6 68.301 146 71.501 Q 148.3 74.701 153.1 74.701 Q 154.6 74.701 155.6 73.801 Q 157.1 73.801 157.1 74.901 Q 157.1 75.601 155.85 76.551 Q 154.6 77.501 153.3 78.001 L 150 78.001 Z M 230.9 78.001 L 228.5 77.101 Q 226.6 76.501 225.25 75.401 Q 223.9 74.301 222.7 72.101 Q 220.6 68.101 220.2 60.601 Q 220 57.201 220 54.601 L 220 43.201 Q 220 36.701 220.4 30.601 Q 220.7 26.101 221.3 23.001 Q 221.9 19.901 223.2 16.801 Q 224.6 13.601 226.3 12.301 Q 227 11.701 229 10.901 Q 230.3 10.401 231.5 9.801 L 235.5 9.801 L 235.8 9.801 Q 235.9 9.901 236.1 9.901 L 236.6 10.001 L 237 10.301 Q 237.3 10.601 237.3 10.701 Q 237.4 10.901 237.4 11.301 L 236.1 12.801 L 231.9 12.801 Q 230 12.801 228.45 14.651 Q 226.9 16.501 226.1 19.301 Q 225.3 21.801 224.8 25.201 Q 224.3 28.601 224.2 31.101 Q 224 34.301 224 35.501 L 223.8 36.001 Q 223.8 41.601 223.6 46.101 L 223.4 56.201 Q 223.4 60.601 224 64.301 Q 224.5 68.301 226.9 71.501 Q 229.2 74.701 234 74.701 Q 235.5 74.701 236.5 73.801 Q 238 73.801 238 74.901 Q 238 75.601 236.75 76.551 Q 235.5 77.501 234.2 78.001 L 230.9 78.001 Z M 274.1 45.001 L 274.2 33.201 Q 274.2 25.601 273.8 14.401 Q 272.9 13.601 272.9 12.401 Q 272.9 11.701 273.75 10.951 Q 274.6 10.201 275.3 10.201 Q 276.1 10.201 276.8 11.001 L 277.9 11.901 Q 278.5 12.201 280.2 12.501 Q 281.9 12.801 282.6 13.101 Q 284.1 13.901 286.6 16.201 Q 289 18.601 289.9 19.201 L 289.8 19.401 Q 289.9 20.001 291.3 22.001 Q 292.4 23.501 293.1 24.801 Q 294.7 29.401 294.7 36.701 Q 294.7 38.001 294.6 39.001 L 294.6 41.401 L 294.6 42.201 L 294.5 43.201 Q 294.5 45.101 295.1 46.201 A 160.027 160.027 0 0 0 293.712 57.211 A 547.884 547.884 0 0 0 293.6 58.301 Q 293.3 60.901 292.6 63.801 Q 291.9 66.701 290.9 68.601 Q 288.3 73.501 282.2 76.901 L 275.2 76.901 Q 274.4 76.901 274.4 74.201 Q 274 67.301 274 56.801 Q 274 50.201 274.1 45.001 Z M 278.7 74.001 L 281.8 74.001 Q 282.5 73.201 283.1 72.701 L 283.8 72.201 L 284.6 71.501 A 26.102 26.102 0 0 0 291.344 53.859 A 74.097 74.097 0 0 0 291.6 47.501 L 291.6 45.601 Q 291.5 44.801 291.5 43.901 L 291.1 33.801 Q 290.8 28.001 287.6 21.801 Q 286.1 18.701 283.55 16.751 Q 281 14.801 278.2 14.801 Q 277 14.801 277 33.301 A 507.01 507.01 0 0 0 278.163 70.103 A 318.059 318.059 0 0 0 278.2 70.601 L 278.1 72.501 L 278.5 72.701 L 278.7 74.001 Z M 199.9 12.501 L 199.5 8.601 A 0.01 0.01 0 0 1 199.499 8.609 A 17.045 17.045 0 0 1 199.3 7.501 L 199.1 6.301 Q 198.3 8.501 197.55 12.401 Q 196.8 16.301 196 21.601 Q 193.6 36.501 191.9 44.001 L 191 47.401 Q 189.5 52.401 189.5 55.001 L 189.5 55.601 Q 193.9 57.001 199.6 57.001 L 200.2 57.001 Q 200.5 57.101 200.9 57.101 Q 202.9 57.101 202.9 56.101 Q 202.9 49.901 202.2 39.151 Q 201.5 28.401 200.7 20.201 Q 200.5 16.701 199.9 12.501 Z M 90.8 39.101 L 91 39.301 Q 92.9 39.301 94.4 37.401 Q 95.9 35.501 96.8 32.501 Q 98.4 26.401 98.4 22.801 Q 98.4 20.501 98.15 19.001 Q 97.9 17.501 97.3 15.801 Q 96.1 12.301 91.6 12.301 Q 91.1 12.301 90.8 13.151 Q 90.5 14.001 90.5 14.901 Q 90.5 21.601 90.7 27.001 Q 90.8 32.401 90.8 39.101 Z" vector-effect="non-scaling-stroke"/></g></svg>