<svg xmlns="http://www.w3.org/2000/svg" width="27" height="13" viewBox="0 0 27 13" fill="none"><path fill-rule="evenodd" clip-rule="evenodd" d="M5.77 2.52L5.84 2.35C6.03 2.38 6.13 2.6 6.13 3.02L6.17 6.22C6.17 6.45 6.19 6.88 6.23 7.5 6.28 8.07 6.31 8.5 6.31 8.79 6.23 9.07 6.26 9.37 6.42 9.63 6.57 9.89 6.82 10.08 7.11 10.16 7.16 10.16 7.2 10.16 7.25 10.16 7.64 10.16 7.88 9.32 7.99 7.63L8 7.38C8.06 5.17 8.09 3.53 8.09 2.46L8.08 2.35C8.07 2.32 8.07 2.29 8.07 2.25 8.07 2.16 8.14 2.11 8.28 2.11 8.38 2.11 8.44 2.14 8.47 2.18 8.49 2.27 8.49 2.41 8.49 2.61 8.49 3.22 8.47 3.63 8.42 3.84L8.43 3.91C8.43 4.02 8.42 4.18 8.39 4.4L8.37 4.88V5C8.38 5.03 8.38 5.07 8.38 5.12 8.37 5.32 8.36 5.5 8.36 5.68 8.35 5.74 8.34 5.82 8.34 5.94 8.33 6.71 8.31 7.38 8.29 7.94 8.27 8.64 8.17 9.23 7.99 9.72 7.81 10.23 7.51 10.49 7.1 10.49 6.96 10.49 6.82 10.45 6.67 10.36 6.51 10.28 6.38 10.18 6.28 10.07 6.16 9.92 6.07 9.52 6.01 8.85 5.94 8.18 5.9 7.41 5.88 6.55 5.88 6.36 5.88 6.21 5.87 6.11 5.85 4.09 5.82 2.89 5.77 2.52ZM1.01 6.92V6.38C1 6.21 1 6.01 1 5.79 1 5.3 1.01 4.76 1.04 4.14 1.06 3.61 1.12 3.1 1.2 2.6 1.29 2.13 1.41 1.75 1.59 1.46 1.65 1.33 1.75 1.21 1.88 1.13 2.01 1.05 2.16 1 2.31 1 2.6 1 2.89 1.11 3.18 1.34 3.47 1.57 3.64 1.83 3.68 2.1 3.9 3.43 4.02 4.78 4.03 6.12 4.03 6.35 4.03 6.58 4.03 6.8 4.08 7.79 3.88 8.77 3.46 9.66 3.4 9.78 3.33 9.89 3.25 10 3.25 10.04 3.27 10.12 3.31 10.23L3.38 10.39 3.41 10.72C3.44 10.94 3.46 11.09 3.48 11.18 3.5 11.27 3.55 11.36 3.62 11.45 3.69 11.54 3.8 11.59 3.93 11.59H3.98C4.25 11.59 4.38 11.64 4.38 11.75 4.38 11.9 4.22 11.98 3.9 11.98 3.87 11.98 3.8 11.95 3.7 11.91 3.61 11.85 3.55 11.82 3.53 11.82 3.38 11.76 3.26 11.64 3.18 11.47 3.09 11.3 3.02 11.06 2.97 10.73 2.92 10.42 2.88 10.23 2.85 10.15 2.61 10.15 2.4 10.11 2.21 10.04 2.01 9.96 1.85 9.85 1.72 9.72 1.49 9.49 1.31 9.14 1.18 8.68 1.13 8.52 1.09 8.32 1.06 8.09 1.04 7.85 1.03 7.65 1.03 7.47 1.02 7.36 1.01 7.18 1.01 6.92ZM24.89 7.24L24.83 6.38 24.76 6.22 24.79 6.08C24.74 5.97 24.67 5.78 24.57 5.51 24.47 5.24 24.37 4.97 24.26 4.7 24.05 4.18 23.86 3.65 23.69 3.11 23.69 3.09 23.68 3.07 23.67 3.04 23.62 2.88 23.59 2.73 23.56 2.6L23.74 2.46C23.92 2.65 24.03 2.89 24.07 3.15 24.08 3.18 24.09 3.21 24.1 3.24 24.23 3.59 24.34 3.94 24.44 4.29L24.59 4.75C24.64 5.02 24.75 5.28 24.91 5.52 24.91 5.52 24.91 5.52 24.92 5.52L24.97 5.3 24.94 5.24C25.01 5.16 25.09 4.88 25.2 4.39 25.3 3.82 25.41 3.35 25.51 2.96 25.62 2.51 25.73 2.28 25.84 2.28 25.88 2.28 25.92 2.29 25.95 2.32 25.98 2.34 26 2.37 26 2.4 26 2.52 25.87 3 25.62 3.83 25.5 4.22 25.39 4.59 25.31 4.94 25.21 5.35 25.16 5.72 25.16 6.04 25.2 6.12 25.22 6.19 25.22 6.25 25.22 6.29 25.21 6.34 25.18 6.42 25.16 6.49 25.14 6.55 25.14 6.6 25.14 6.64 25.16 6.82 25.2 7.14 25.23 7.36 25.25 7.54 25.25 7.7 25.25 8.05 25.25 8.37 25.26 8.65V9.62 9.67C25.3 9.81 25.3 9.97 25.26 10.11 25.22 10.25 25.14 10.38 25.02 10.49 25.01 10.49 25 10.49 24.99 10.49 24.97 10.49 24.94 10.47 24.89 10.44 24.85 10.41 24.83 10.38 24.82 10.36 24.89 10.16 24.93 9.46 24.93 8.24 24.93 8.01 24.92 7.67 24.89 7.24ZM12.41 9.05L12.34 8.57C12.16 8.53 11.95 8.51 11.71 8.51L11.26 8.48C11.06 8.46 10.91 8.45 10.82 8.45 10.77 8.45 10.74 8.47 10.73 8.51 10.73 8.53 10.73 8.54 10.72 8.54L10.7 8.79C10.69 8.93 10.64 9.22 10.56 9.66 10.52 9.87 10.47 10.04 10.41 10.16 10.34 10.3 10.28 10.37 10.22 10.37 10.17 10.37 10.11 10.35 10.05 10.3 10 10.26 9.97 10.21 9.97 10.16L9.98 10.13 9.99 10.09C10.14 9.52 10.27 8.95 10.37 8.39L10.52 7.64 10.67 6.72 10.81 5.92C10.85 5.7 10.93 5.35 11.04 4.87 11.15 4.32 11.22 3.95 11.25 3.74 11.26 3.72 11.27 3.57 11.3 3.3 11.33 2.99 11.36 2.77 11.39 2.62 11.41 2.41 11.44 2.29 11.46 2.26H11.55C11.58 2.27 11.61 2.27 11.64 2.27 11.74 2.27 11.81 2.25 11.87 2.2 11.92 2.2 11.98 2.22 12.02 2.25 12.07 2.29 12.09 2.33 12.09 2.38 12.09 2.77 12.12 3.21 12.18 3.71 12.21 3.97 12.24 4.18 12.26 4.35 12.32 5.04 12.39 5.73 12.48 6.41 12.6 7.42 12.76 8.68 12.96 10.2V10.24C12.96 10.32 12.93 10.38 12.86 10.42 12.73 10.42 12.65 10.4 12.62 10.38 12.59 10.35 12.56 10.27 12.54 10.15 12.5 9.79 12.45 9.43 12.41 9.07 12.41 9.06 12.41 9.06 12.41 9.05V9.05ZM17.69 10.2H17.59C17.4 10.2 17.29 10.16 17.23 10.08 17.23 10.02 17.27 9.98 17.34 9.93L17.4 9.87H17.76L17.81 9.83 17.84 9.72 17.85 9.57C17.85 9.08 17.84 8.64 17.81 8.25L17.79 7.81 17.76 6.92C17.76 6.61 17.78 6.14 17.8 5.51L17.83 4.11C17.83 3.49 17.81 3.03 17.76 2.7 17.69 2.68 17.56 2.67 17.39 2.67L17.25 2.68C17.2 2.69 17.14 2.69 17.08 2.69 16.92 2.69 16.85 2.62 16.85 2.49 16.85 2.45 16.88 2.42 16.96 2.39 17.03 2.36 17.1 2.34 17.15 2.34 17.47 2.34 17.78 2.36 18.1 2.39 18.3 2.4 18.49 2.43 18.68 2.5 18.83 2.55 18.91 2.62 18.91 2.7 18.91 2.72 18.89 2.75 18.87 2.8L18.58 2.83C18.52 2.78 18.4 2.75 18.22 2.75L18.15 2.79C18.18 2.86 18.19 3.08 18.19 3.43 18.19 3.96 18.19 4.44 18.18 4.87L18.15 6.31C18.15 6.67 18.17 7.11 18.2 7.63 18.23 8.21 18.24 8.66 18.24 8.96V9.11C18.23 9.17 18.23 9.24 18.23 9.33 18.23 9.52 18.24 9.63 18.27 9.67L18.25 9.69C18.25 9.77 18.35 9.81 18.53 9.81 18.61 9.81 18.67 9.81 18.72 9.8H18.91C19.15 9.8 19.27 9.86 19.27 9.97 19.27 10.04 19.25 10.1 19.2 10.15 19.15 10.19 19.08 10.21 19 10.21 18.92 10.21 18.85 10.2 18.79 10.19 18.73 10.18 18.66 10.18 18.58 10.18 18.53 10.18 18.45 10.2 18.35 10.24 18.25 10.29 18.18 10.31 18.13 10.31 17.93 10.31 17.82 10.27 17.79 10.19 17.75 10.19 17.71 10.19 17.69 10.2ZM21.4 10.24L21.26 10.14 21.25 9.69C21.24 9.56 21.23 9.42 21.23 9.26 21.23 9.18 21.24 9.11 21.25 9.05L21.26 8.83C21.26 8.75 21.24 8.66 21.21 8.54 21.21 8 21.17 7 21.08 5.53 21.04 4.83 21 4.12 20.97 3.41 20.96 3.15 20.95 2.9 20.94 2.64 20.42 2.64 20.08 2.63 19.9 2.61 19.73 2.57 19.65 2.5 19.65 2.41 19.69 2.33 19.77 2.28 19.89 2.28 20.14 2.28 20.5 2.3 20.98 2.33 21.42 2.37 21.78 2.39 22.08 2.39H22.34L22.6 2.38C22.76 2.38 22.83 2.43 22.83 2.54 22.83 2.58 22.8 2.62 22.75 2.65 22.69 2.68 22.63 2.69 22.55 2.69 22.39 2.69 22.21 2.68 22.03 2.67L21.49 2.64C21.45 2.64 21.44 2.66 21.44 2.68 21.43 2.7 21.42 2.78 21.42 2.91 21.43 3.68 21.46 4.45 21.5 5.22 21.52 5.64 21.55 6.05 21.57 6.46 21.62 7.31 21.66 8.16 21.69 9 21.7 9.34 21.71 9.67 21.71 10.01 21.71 10.06 21.68 10.12 21.6 10.16 21.53 10.21 21.46 10.24 21.4 10.24ZM14.43 3.35L14.46 2.91 14.49 2.55C14.49 2.49 14.52 2.46 14.58 2.46 14.62 2.46 14.68 2.48 14.76 2.5L14.8 2.51C14.8 2.69 14.79 2.85 14.78 2.99V3.47 4.78C14.79 5.17 14.8 5.61 14.8 6.1 14.79 6.14 14.78 6.23 14.78 6.37L14.77 6.62C14.76 6.78 14.76 6.95 14.76 7.12 14.76 7.3 14.76 7.47 14.77 7.63L14.78 8.15 14.75 8.24 14.76 8.23C14.76 8.25 14.75 8.27 14.75 8.28V8.33C14.75 8.39 14.76 8.45 14.78 8.5L14.75 9.66V9.73C14.75 9.87 14.75 9.95 14.76 9.97 14.76 10.01 14.78 10.03 14.82 10.03L15.47 10.06C15.67 10.06 15.8 10.06 15.87 10.06 15.94 10.07 15.99 10.07 16 10.07H16.04C16.08 10.07 16.12 10.09 16.17 10.13 16.2 10.17 16.23 10.22 16.23 10.27 16.23 10.37 16.16 10.42 16.03 10.43 15.89 10.42 15.54 10.42 14.98 10.42L15.01 10.43C14.93 10.43 14.85 10.43 14.77 10.44 14.7 10.46 14.63 10.47 14.54 10.47 14.43 10.47 14.36 10.37 14.33 10.19 14.35 10.14 14.36 10.01 14.36 9.79 14.36 9.03 14.36 8.27 14.38 7.52 14.38 7.17 14.39 6.83 14.39 6.49 14.42 5.04 14.43 3.99 14.43 3.35ZM3.59 5.07V4.76L3.58 4 3.57 3.67C3.56 3.48 3.54 3.29 3.5 3.11 3.47 2.93 3.44 2.75 3.4 2.56 3.34 2.25 3.21 1.96 3.01 1.69 2.84 1.46 2.6 1.34 2.28 1.34 2.15 1.34 2.03 1.43 1.93 1.6 1.73 2.04 1.6 2.51 1.56 2.99 1.54 3.09 1.53 3.2 1.52 3.3 1.44 3.86 1.39 4.55 1.38 5.35 1.37 5.53 1.36 5.78 1.36 6.1V6.83C1.36 7.29 1.41 7.75 1.52 8.22 1.57 8.54 1.65 8.81 1.75 9.03 1.84 9.26 1.97 9.44 2.13 9.6 2.3 9.76 2.49 9.84 2.71 9.84 2.9 9.78 3.06 9.66 3.17 9.5 3.28 9.34 3.33 9.16 3.32 8.97 3.34 8.88 3.36 8.79 3.38 8.7 3.49 7.97 3.56 7.23 3.57 6.48 3.58 6.01 3.59 5.54 3.59 5.07V5.07ZM12.15 8.24H12.28C12.2 7.08 12.04 5.37 11.8 3.1L11.12 6.33C11.01 6.83 10.92 7.33 10.85 7.84 10.84 7.92 10.84 8 10.83 8.09 10.83 8.13 10.99 8.16 11.31 8.19 11.63 8.23 11.91 8.24 12.15 8.24Z" stroke="black" stroke-width="0.25" stroke-linecap="round"/></svg>