<svg width="315" height="164" fill="none" xmlns="http://www.w3.org/2000/svg">
  <path d="M250.9 92.8L237.6 121c-.4.8-1 .6-1.2 0-1.7-4.2-8.5-10-17.5-14.1h-.2l1.4-3.2 3.4-7.4h.4a51 51 0 0114.8 10.2c.4.2 1 0 1.2-.5l2.8-5.9c.4-1 .6-1.7.2-2-4.2-4.5-9.5-8-15.2-10.4h-.2l5-10.7h.3c10.3 4.8 17.9 11.5 18.1 15.8zM59.9 125h12.6V74.4H59.8V125zm44.8-67.6a25.3 25.3 0 0022.5 12c10-.2 18-8.2 18-18.4 0-8.4-6.8-15.1-15.2-15.1h-.7a13 13 0 00-11.3 6.7c-.7 1 1.2.7 2.5-.2 2.3-1.3 4.8-2.1 7.4-2.3 6 0 11 4.8 11.1 10.7v.2c0 3-1.6 11.4-13.4 11.6-12.5.2-15-13-28-20.6-9.3-5.5-21.8-3.8-26.2 0-.2 0-.4.4-.2.6 0 .2.2.2.2.2 2.8 1 5.3 2.6 7.4 4.9.2.2.6.2.8 0l1.7-.7c10-3.1 17.7 2.6 23.4 10.4zM65.1 43.7c-5.9 0-12.4 5.7-15.4 12.2a3503 3503 0 00-22.3 55.4H27L13.9 74.4H0L20.4 125H34l15-37.3v-.2c9.5-23.6 12.8-34.8 18.5-34.8 3.2-.2 6 2 6.1 5v.5c0 2.7-2 4.9-4.8 4.9a4.7 4.7 0 01-5-4.3v-.6c0-.4-.5-.6-1 0-1 1.5-1.6 3.2-2.2 5a7.7 7.7 0 008 7.4c6.3-.4 11.3-5.6 11.3-12a14 14 0 00-13-14.7c-.4-.2-1-.2-1.7-.2zM111.4 73a17 17 0 00-15.8 9.4h-.2v-8h-12V125h12.7V97.2c0-6.8 3.8-13.7 11.8-13.7s9.4 7.6 9.4 13.5v28H130V93.4c.2-10.3-5.3-20.4-18.6-20.4zm203.3 19.3a65.5 65.5 0 01-91.4 60l-4.2 9.1c-1.9 3.8-12.9 3-24.4-2.5-11.6-5.3-19.4-13-17.7-17 .2-.5 10-21.8 39.4-84.3 1.9-4.2 5-7.6 9-9.7 5.7-2.1 14.5-6.1 16.2-9.5.5-1 2-3.8 3.6-7.4a58.8 58.8 0 00-54.5 54.6c0 .2-.3.2-.5 0a25 25 0 00-4.8-6.5v-.7A65.4 65.4 0 01247 27c3.8-8.4 8.6-18.3 8.6-18.3-.2-.6-.2-1.3 0-2.1L257 3c.2-.6 1-.4 1.3-.8.2-.4.4-2 1.7-2.1 1.4-.2 3 0 7.1 1.9h.2c4.2 2 5.3 3.1 6.1 4.4.9 1.2-.2 2-.4 2.7-.2.7.4 1 0 1.7l-1.7 3.6c-.2.6-.8 1-1.4 1.3L264.2 29a64.9 64.9 0 0150.5 63.2zm-7 3.8c3.5-29.7-16-57-45-63.8l-5.9 12.8c-1.5 3.6 1 12.7 3.2 18.6 1 3.4.8 7-.5 10.1h37s.3 0 .5.2c.3.2.3.4.3.6l-1.7 9.3c0 .4-.2.6-.5.9l-32.4 29.7h27l.6.2v.6l-1.5 8.2-.2.6c-.2.3-.4.3-.6.3h-41.3l-.6-.3c-.3-.2-.3-.4-.3-.6l1.7-9.5c0-.2.2-.6.5-.8l32.4-29.5h-25.5v-.8c-1.5-4.3-8.6-10-17.7-14.4a70.2 70.2 0 00-13.3-4.4l-22.3 47.4c4.6.9 9 2.3 13.3 4.4 9.9 4.7 17.5 11.2 18.1 15.4v.6l-5.7 12.3a58.8 58.8 0 0080.5-48zm-144.6 30.4c-14.8.4-27-11-27.4-25.7v-1.5a26.2 26.2 0 0125.9-26.6h1.7a26.2 26.2 0 0127.4 24.9v1.7a26.4 26.4 0 01-26.2 27c-.4.2-.8.2-1.4.2zm14.7-27c0-7.8-4.6-16.2-14.5-16.2-10 0-14.6 8.4-14.6 16.2 0 7.8 4.7 16.4 14.6 16.4 9.9 0 14.5-8.6 14.5-16.4z" fill="#ccc"/>
</svg>