<svg width="166" height="89" viewBox="0 0 166 89" fill="none" xmlns="http://www.w3.org/2000/svg">
<path d="M132.469 49.7289L125.497 64.6364C125.275 65.0814 124.943 64.9701 124.833 64.6364C123.947 62.4114 120.406 59.4076 115.647 57.1826H115.537L116.311 55.5139L118.082 51.6201H118.303C121.181 52.9551 123.837 54.7351 126.05 56.9601C126.271 57.0714 126.603 56.9601 126.714 56.7376L128.153 53.6226C128.374 53.0664 128.485 52.7326 128.263 52.5101C126.05 50.1739 123.283 48.2826 120.295 47.0589H120.185L122.841 41.3851H122.951C128.374 43.9439 132.358 47.5039 132.469 49.7289ZM32.0939 66.7501H38.7339V40.0501H32.0939V66.7501ZM55.6659 31.0389C58.2112 35.1551 62.7486 37.6026 67.5072 37.3801C72.7086 37.2689 76.9139 33.0414 76.9139 27.7014C76.9139 23.2514 73.3726 19.6914 68.9459 19.6914C68.8352 19.6914 68.7246 19.6914 68.6139 19.6914C66.1792 19.6914 63.8552 21.0264 62.6379 23.2514C62.3059 23.8076 63.3019 23.5851 63.9659 23.1401C65.1832 22.4726 66.5112 22.0276 67.8392 21.9164C71.0486 21.9164 73.5939 24.4751 73.7046 27.5901C73.7046 27.5901 73.7046 27.5901 73.7046 27.7014C73.7046 29.2589 72.8192 33.7089 66.6219 33.8201C60.0926 33.9314 58.7646 26.9226 51.9032 22.9176C47.0339 20.0251 40.5046 20.9151 38.1806 22.9176C38.0699 22.9176 37.9592 23.1401 38.0699 23.2514C38.0699 23.3626 38.1806 23.3626 38.1806 23.3626C39.6192 23.9189 40.9472 24.6976 42.0539 25.9214C42.1646 26.0326 42.3859 26.0326 42.4966 25.9214L43.3819 25.5876C48.5832 23.9189 52.6779 26.9226 55.6659 31.0389ZM34.8605 23.8076C31.7619 23.8076 28.3312 26.8114 26.7819 30.2601C25.5646 32.8189 15.0512 59.5189 15.0512 59.5189H14.8299L7.96855 40.0501H0.664551L11.3992 66.7501H18.4819L26.3392 47.0589V46.9476C31.3192 34.4876 33.0899 28.5914 36.0779 28.5914C37.7379 28.4801 39.1766 29.5926 39.2872 31.2614C39.2872 31.3726 39.2872 31.3726 39.2872 31.4839C39.2872 32.9301 38.1806 34.0426 36.7419 34.0426C35.4139 34.1539 34.1965 33.1526 34.0859 31.8176C34.0859 31.7064 34.0859 31.5951 34.0859 31.4839C34.0859 31.2614 33.8646 31.1501 33.6432 31.4839C33.0899 32.2626 32.7579 33.1526 32.4259 34.1539C32.5366 36.3789 34.4179 38.1589 36.6312 38.0476C39.9512 37.8251 42.6072 35.0439 42.6072 31.7064C42.8286 27.7014 39.7299 24.1414 35.7459 23.9189C35.5246 23.8076 35.1926 23.8076 34.8605 23.8076ZM59.2072 39.2714C55.6659 39.1601 52.4566 41.1626 50.9072 44.2776H50.7966V40.0501H44.4886V66.7501H51.1286V52.0651C51.1286 48.5051 53.1206 44.8339 57.3259 44.8339C61.5312 44.8339 62.3059 48.8389 62.3059 51.9539V66.7501H68.9459V50.0626C69.0565 44.6114 66.1792 39.2714 59.2072 39.2714ZM166.001 49.5064C166.001 68.5301 150.729 83.9939 131.694 84.1051C126.935 84.1051 122.287 83.1039 117.971 81.2126L115.758 85.9964C114.762 87.9989 109.007 87.5539 102.921 84.6614C96.8339 81.8801 92.7392 77.7639 93.6245 75.6501C93.7352 75.4276 98.9366 64.1914 114.319 31.1501C115.315 28.9251 116.975 27.1451 119.078 26.0326C122.066 24.9201 126.714 22.8064 127.599 21.0264C127.821 20.4701 128.595 19.0239 129.481 17.1326C114.098 18.2451 101.925 30.4826 100.818 45.9464C100.818 46.0576 100.707 46.0576 100.597 45.9464C99.9326 44.6114 99.0472 43.4989 98.0512 42.4976C98.0512 42.3864 98.0512 42.2751 98.0512 42.1639C101.371 26.7001 114.762 15.5751 130.477 15.0189C132.469 10.5689 135.014 5.34014 135.014 5.34014C134.903 5.00639 134.903 4.67264 135.014 4.22764L135.678 2.33639C135.789 2.00264 136.231 2.11389 136.342 1.89139C136.453 1.66889 136.563 0.890143 137.227 0.778893C138.002 0.667643 138.777 0.778893 140.99 1.78014H141.101C143.314 2.89264 143.867 3.44889 144.31 4.11639C144.753 4.78389 144.199 5.22889 144.089 5.56264C143.978 5.89639 144.31 6.11889 144.089 6.45264L143.203 8.34389C143.093 8.67764 142.761 8.90014 142.429 9.01139L139.441 16.1314C155.045 19.6914 165.89 33.4864 166.001 49.5064ZM162.349 51.5089C164.119 35.8226 153.938 21.3601 138.666 17.8001C137.227 20.9151 135.899 23.9189 135.567 24.5864C134.793 26.4776 136.121 31.2614 137.227 34.3764C137.781 36.1564 137.67 38.0476 137.006 39.7164H156.373C156.373 39.7164 156.594 39.7164 156.705 39.8276C156.815 39.9389 156.815 40.0501 156.815 40.1614L155.93 45.0564C155.93 45.2789 155.819 45.3901 155.709 45.5014L138.666 61.1876H152.831C152.942 61.1876 153.053 61.2989 153.163 61.2989C153.163 61.4101 153.163 61.5214 153.163 61.6326L152.389 65.9714C152.389 66.0826 152.278 66.1939 152.278 66.3051C152.167 66.4164 152.057 66.4164 151.946 66.4164H130.255C130.145 66.4164 130.034 66.3051 129.923 66.3051C129.813 66.1939 129.813 66.0826 129.813 65.9714L130.698 60.9651C130.698 60.8539 130.809 60.6314 130.919 60.5201L147.962 44.9451H134.571C134.571 44.8339 134.571 44.6114 134.571 44.5001C133.797 42.2751 130.034 39.2714 125.275 36.9351C123.062 35.9339 120.738 35.1551 118.303 34.5989L106.573 59.6301C109.007 60.0751 111.331 60.8539 113.545 61.9664C118.746 64.4139 122.73 67.8626 123.062 70.0876C123.062 70.1989 123.062 70.3101 123.062 70.4214L120.074 76.8739C135.899 83.3264 153.938 75.7614 160.357 59.8526C161.353 57.1826 162.017 54.4014 162.349 51.5089ZM86.3206 67.5289C78.5739 67.7514 72.1552 61.7439 71.9339 53.9564C71.9339 53.7339 71.9339 53.5114 71.9339 53.1776C71.8232 45.5014 77.9099 39.2714 85.5459 39.1601C85.8779 39.1601 86.0992 39.1601 86.4312 39.1601C94.0672 38.8264 100.486 44.7226 100.818 52.2876C100.818 52.6214 100.818 52.8439 100.818 53.1776C100.929 60.9651 94.8419 67.3064 87.0952 67.4176C86.8739 67.5289 86.6526 67.5289 86.3206 67.5289ZM94.0672 53.2889C94.0672 49.1726 91.6326 44.7226 86.4312 44.7226C81.2299 44.7226 78.7952 49.1726 78.7952 53.2889C78.7952 57.4051 81.2299 61.9664 86.4312 61.9664C91.6326 61.9664 94.0672 57.4051 94.0672 53.2889Z M38.733 40.0508H32.093V66.7508H38.733V40.0508Z" fill="#290E38"/>
</svg>
