<svg width="59" height="230" viewBox="0 0 59 230" fill="none" xmlns="http://www.w3.org/2000/svg">
<path d="M39.353 57.0688C39.353 46.7254 39.353 0 39.353 0H31.6715H27.1228H19.445C19.445 0 19.445 46.7254 19.445 57.0688C19.445 67.4122 0 79.9684 0 94.7101C0 109.448 0 216.069 0 219.829C0 223.589 2.51522 229.86 8.15122 229.86C11.988 229.86 21.4409 229.86 27.1301 229.86C29.8168 229.86 31.6787 229.86 31.6787 229.86C37.3679 229.86 46.8165 229.86 50.654 229.86C56.2942 229.86 58.8124 223.589 58.8124 219.829C58.8124 216.069 58.8124 109.448 58.8124 94.7101C58.8118 79.9684 39.353 67.4189 39.353 57.0688ZM23.7418 73.8271C22.483 75.5459 21.0763 77.7134 19.5476 80.2141C18.0008 82.7215 16.5349 85.6436 15.0442 88.8139C14.4761 90.4344 13.8935 92.1321 13.4063 93.8329C13.3887 95.6357 12.817 96.9651 13.0663 99.2274C13.2173 103.422 13.3821 107.834 13.5499 112.401C13.8518 121.538 13.908 131.289 13.9852 141.032C13.9641 160.525 13.3749 180.027 12.4632 194.646C12.0635 201.955 11.4078 208.044 11.0987 212.309C10.7202 216.574 10.4044 219.015 10.4044 219.015C10.4044 219.015 10.0856 216.574 9.70647 212.309C9.39796 208.044 8.74169 201.956 8.342 194.646C7.43034 180.027 6.84048 160.525 6.81995 141.032C6.88999 131.288 6.94614 121.538 7.25465 112.401C7.4231 107.835 7.58793 103.422 7.73886 99.2274C7.66521 97.2809 8.39815 94.6365 8.81595 92.5318C9.62618 90.5503 10.524 88.7119 11.3801 86.9797C12.4221 85.387 13.4075 83.8614 14.3541 82.413C15.4312 81.0908 16.4516 79.8422 17.4055 78.6564C19.3906 76.3694 21.1548 74.4368 22.6949 72.9287C25.739 69.8846 27.6928 68.3903 27.6928 68.3903C27.6928 68.3903 26.1689 70.3368 23.7418 73.8271Z" fill="black"/>
</svg>
