<svg width="68" height="252" viewBox="0 0 68 252" fill="none" xmlns="http://www.w3.org/2000/svg">
<path d="M31.7208 0.108922C30.7155 0.173091 29.0043 0.23726 27.9134 0.258649C25.1542 0.280039 22.951 0.665051 22.3521 1.22118C21.2613 2.2051 21.0046 2.88957 21.1543 4.51518C21.2826 5.81994 21.2399 6.1194 20.8335 6.80386C20.4271 7.48833 20.3843 7.89473 20.3843 10.654C20.3843 13.4132 20.4271 13.8197 20.8335 14.5469C21.1757 15.1672 21.304 15.7447 21.304 16.857C21.3254 18.5468 21.0901 25.9903 20.919 29.2629C20.8335 30.9313 20.5554 41.3694 20.5554 43.594C20.5554 43.8292 20.4698 44.5993 20.3629 45.3051C20.2773 46.011 20.1704 47.551 20.149 48.7275C20.1276 49.9039 19.9779 51.829 19.8282 53.0054C19.6784 54.1818 19.4859 55.7646 19.4217 56.5347C19.3362 57.3047 19.1223 58.695 18.9512 59.6362C18.7801 60.5773 18.6089 61.5398 18.5662 61.7751C18.2453 63.5505 17.3256 67.7 16.9619 68.9834C16.7267 69.839 16.2775 71.4646 15.978 72.5769C15.1224 75.8281 10.9729 88.7688 10.5451 89.5174C10.4167 89.7313 10.3312 90.0735 10.3312 90.3088C10.3312 90.5227 10.1601 91.0789 9.96755 91.528C9.77504 91.9986 9.60393 92.405 9.58254 92.4692C9.56115 92.5334 9.32586 93.3034 9.0478 94.1803C8.76973 95.0573 8.53445 95.8273 8.51306 95.8915C8.49167 95.9557 8.40611 96.1696 8.34194 96.3621C7.99971 97.2391 7.91415 97.5171 7.84998 97.7096C7.82859 97.8166 7.65747 98.3513 7.48636 98.8861C7.31524 99.4208 7.05857 100.276 6.90884 100.811C6.73772 101.346 6.54522 101.859 6.43827 101.988C6.35271 102.094 6.26715 102.394 6.26715 102.629C6.26715 102.886 6.20298 103.164 6.11742 103.25C6.03187 103.335 5.92492 103.656 5.88214 103.977C5.83936 104.276 5.73241 104.64 5.64685 104.768C5.5399 104.875 5.39018 105.324 5.30462 105.731C5.21906 106.137 5.09072 106.565 5.02655 106.693C4.96239 106.8 4.87683 107.035 4.85544 107.228C4.83405 107.399 4.59876 108.212 4.34209 109.046C4.08541 109.859 3.74318 111.164 3.59345 111.934C3.42233 112.704 3.10149 114.244 2.84482 115.356C2.60953 116.468 2.18174 118.778 1.90367 120.49C1.4331 123.399 1.30477 124.382 0.727246 129.045C0.149727 133.58 0 139.312 0 156.146C0 168.68 0.0641688 173.814 0.235286 174.006C0.363623 174.177 0.51335 175.568 0.556129 177.279C1.4331 204.508 2.01062 222.86 2.11757 226.475C2.18174 228.935 2.33147 231.416 2.43841 231.951C2.56675 232.485 2.63092 233.02 2.60953 233.127C2.54536 233.32 2.65231 234.731 3.10149 239.202C3.44372 242.817 4.25653 244.186 6.97301 245.683C7.72164 246.111 8.47028 246.603 8.62001 246.795C8.76973 246.966 9.06919 247.116 9.26169 247.116C9.47559 247.116 9.96755 247.287 10.374 247.48C11.4648 248.014 11.5718 248.057 13.8605 248.763C17.0475 249.768 18.6517 250.153 18.9084 250.004C19.0153 249.918 19.2292 249.961 19.379 250.068C19.5287 250.175 20.1704 250.324 20.8121 250.41C21.4538 250.495 23.5713 250.752 25.5178 250.987C29.3465 251.437 37.9024 251.629 41.0252 251.33C42.5225 251.18 44.7898 250.966 47.656 250.667C50.3297 250.389 52.597 250.046 52.7895 249.897C52.9179 249.811 53.3456 249.725 53.752 249.747C55.121 249.768 60.1689 247.993 60.1689 247.501C60.1689 247.394 60.2973 247.33 60.447 247.394C60.8534 247.544 61.7945 246.988 63.5057 245.576C64.3613 244.87 65.2169 243.972 65.4094 243.544C65.6019 243.137 65.9227 241.875 66.1152 240.742C66.4147 238.967 66.4789 236.164 66.5216 221.128C66.5644 202.176 66.6072 199.439 66.8425 199.289C66.928 199.225 66.8639 198.861 66.7141 198.455C66.543 198.07 66.4361 197.706 66.5002 197.663C66.543 197.599 66.6286 193.621 66.6927 188.808C66.7569 183.995 66.8639 175.632 66.9494 170.22C67.1419 156.681 67.1633 137.323 66.9494 134.607C66.6714 130.735 66.4575 128.81 65.6233 122.693C65.5163 122.008 64.5324 117.046 63.9335 114.244C63.7624 113.452 63.5057 112.597 63.356 112.319C63.2062 112.041 63.1207 111.827 63.1635 111.827C63.1849 111.827 63.0565 111.249 62.8426 110.543C62.6287 109.838 62.4362 109.11 62.4148 108.939C62.4148 108.768 62.2651 108.404 62.1368 108.148C61.987 107.891 61.8801 107.506 61.8801 107.271C61.8801 107.057 61.602 106.073 61.2384 105.089C60.8962 104.105 60.5967 103.143 60.5967 102.907C60.5967 102.693 60.5112 102.351 60.4042 102.137C60.0406 101.431 59.1208 98.9716 59.0139 98.3941C58.8642 97.6882 58.6075 96.8327 58.4578 96.6402C58.3936 96.5118 58.2011 95.9985 58.0514 95.4637C57.9016 94.929 57.5594 93.9237 57.3027 93.2178C57.0247 92.512 56.6396 91.3997 56.4257 90.758C56.2332 90.1163 55.9338 89.2821 55.7841 88.9399C55.6343 88.5763 55.3349 87.7207 55.121 87.0148C54.9071 86.309 54.6718 85.6887 54.5862 85.6245C54.4579 85.5176 54.2226 84.8331 53.7307 83.0578C53.5809 82.523 53.2815 81.6888 53.0676 81.1755C52.8537 80.6621 52.6398 80.0418 52.597 79.7852C52.4901 79.2504 52.0837 78.0954 51.6986 77.1756C51.5489 76.812 51.3136 76.042 51.1853 75.4645C51.057 74.9083 50.8858 74.3308 50.8003 74.2025C50.7361 74.0741 50.6506 73.8602 50.6506 73.7533C50.6506 73.625 50.4367 72.8549 50.18 72.0421C49.2175 69.0048 48.533 66.3311 47.8699 63.1654C47.3779 60.8126 46.4796 55.8502 46.3512 54.9304C46.3299 54.6952 46.2443 54.0107 46.1801 53.4332C46.0946 52.8343 45.9876 52.1284 45.9235 51.829C45.8593 51.5295 45.7951 49.9895 45.8165 48.4066C45.8379 46.8238 45.7523 44.3212 45.624 42.8453C45.3887 39.8936 45.2604 37.4765 45.0893 32.6853C45.0251 30.9099 44.9181 28.7924 44.854 27.9796C44.7898 27.1454 44.7042 24.9636 44.6615 23.1027C44.6187 21.2632 44.5331 19.659 44.469 19.5521C44.4048 19.4451 44.3406 18.4612 44.3192 17.3703C44.2978 15.8089 44.4048 15.103 44.7256 14.2688C45.1107 13.2849 45.1534 12.8357 45.0465 10.0123C44.9609 7.42416 44.8754 6.7397 44.5545 6.29051C44.2765 5.9055 44.1267 5.19965 44.0626 3.93766C43.9128 1.41369 43.3567 0.814779 40.8969 0.408376C40.4691 0.344208 39.9771 0.23726 39.7846 0.151701C39.2927 -0.0194156 33.9025 -0.0621947 31.7208 0.108922ZM2.54536 156.638C2.90898 157.002 7.16551 158.285 9.26169 158.67C10.374 158.862 11.9782 159.162 12.791 159.333C14.4594 159.654 18.8015 160.189 22.5232 160.488C26.352 160.788 42.2872 160.574 46.5865 160.167C51.4206 159.697 57.1958 158.82 58.3508 158.349C59.2706 157.986 61.6448 157.536 62.0726 157.643L62.5218 157.75L62.5646 187.418C62.5859 203.716 62.6073 220.101 62.6073 223.801L62.6287 230.539L61.6448 231.031C60.4684 231.608 57.0247 232.806 54.8215 233.405C52.0409 234.132 47.9555 234.753 41.1322 235.459C38.5868 235.715 28.1059 235.801 26.8012 235.566C26.0311 235.437 24.598 235.245 23.5927 235.138C22.5874 235.031 21.1115 234.86 20.2773 234.731C19.4645 234.603 18.0314 234.411 17.1331 234.282C13.6679 233.79 8.19221 232.25 5.83936 231.138C2.50258 229.555 2.63092 229.748 2.52397 226.689C2.24591 218.475 1.66839 156.98 1.88228 156.659C2.0534 156.36 2.2673 156.36 2.54536 156.638Z" fill="black"/>
</svg>
