<svg width="801" height="726" viewBox="0 0 801 726" fill="none" xmlns="http://www.w3.org/2000/svg">
<path d="M264 360.5C264 360.775 264.45 361 265 361C265.55 361 266 361.225 266 361.5C266 361.775 267.125 362 268.5 362C269.875 362 271 361.775 271 361.5C271 361.225 271.45 361 272 361C272.55 361 273 361.225 273 361.5C273 361.8 275 362 278 362C281 362 283 362.2 283 362.5C283 362.778 284.334 363 286 363C287.667 363 289 363.222 289 363.5C289 363.775 290.297 364 291.89 364C294.206 364 294.923 364.198 295.5 365C295.924 365.587 296.795 366 297.611 366C298.375 366 299 366.225 299 366.5C299 366.775 299.45 367 300 367C300.55 367 301 366.775 301 366.5C301 366.225 301.675 366 302.5 366C303.325 366 304 365.775 304 365.5C304 365.225 304.9 365 306 365C307.1 365 308 365.225 308 365.5C308 365.775 308.9 366 310 366C311.1 366 312 366.225 312 366.5C312 366.775 312.675 367 313.5 367C314.325 367 315 367.225 315 367.5C315 367.775 316.125 368 317.5 368C318.875 368 320 367.775 320 367.5C320 367.215 321.5 367 323.5 367H327V371C327 373.2 327.209 375 327.464 375C327.718 375 328.05 376.856 328.2 379.125C328.726 387.058 329.089 390 329.543 390C329.794 390 330 391.35 330 393C330 394.666 330.222 396 330.5 396C330.775 396 331 397.125 331 398.5C331 399.875 331.225 401 331.5 401C331.778 401 332 402.334 332 404C332 405.666 332.222 407 332.5 407C332.775 407 333 407.225 333 407.5C333 407.775 332.1 408 331 408C329.9 408 329 408.225 329 408.5C329 408.785 327.5 409 325.5 409C323.5 409 322 409.215 322 409.5C322 409.808 319.5 410 315.5 410C311.5 410 309 410.192 309 410.5C309 410.8 307 411 304 411C299.334 411 299 411.067 299 412C299 412.972 299.334 413 311 413C318.667 413 323 412.819 323 412.5C323 412.225 324.125 412 325.5 412C326.875 412 328 411.775 328 411.5C328 411.225 328.675 411 329.5 411C330.325 411 331 410.775 331 410.5C331 410.225 331.424 410 331.942 410C332.567 410 332.97 410.452 333.14 411.344C333.621 413.857 333.314 414 327.447 414C324.149 414 322 414.197 322 414.5C322 414.812 319 415 314 415C309 415 306 415.188 306 415.5C306 415.775 305.55 416 305 416C304.334 416 304 416.334 304 417C304 417.963 304.334 418 313 418C318.667 418 322 417.815 322 417.5C322 417.222 323.334 417 325 417C326.667 417 328 416.778 328 416.5C328 416.222 329.334 416 331 416H334V417.5V419H330.5C328.5 419 327 419.215 327 419.5C327 419.815 323.738 420 318.215 420C311.267 420 309.279 420.15 308.715 420.715C308.322 421.107 308 421.557 308 421.715C308 421.872 312.725 422 318.5 422C325.167 422 329 421.817 329 421.5C329 421.222 330.334 421 332 421H335V422.5C335 423.916 334.889 424 333 424C331.9 424 331 424.225 331 424.5C331 424.775 329.875 425 328.5 425C327.125 425 326 425.225 326 425.5C326 425.8 324 426 321 426C318 426 316 426.2 316 426.5C316 426.775 315.55 427 315 427C314.45 427 314 427.225 314 427.5C314 427.775 315.125 428 316.5 428C317.875 428 319 428.225 319 428.5C319 428.775 319.45 429 320 429C320.55 429 321 428.775 321 428.5C321 428.208 322.667 428 325 428C327.334 428 329 427.792 329 427.5C329 427.225 329.9 427 331 427C332.1 427 333 426.775 333 426.5C333 426.225 333.45 426 334 426C334.867 426 335 426.333 335 428.5V431H333C331.9 431 331 431.225 331 431.5C331 431.796 329.167 432 326.5 432C322.334 432 322 432.074 322 433C322 433.926 322.334 434 326.5 434C329.167 434 331 433.796 331 433.5C331 433.225 331.9 433 333 433H335V435V437H331.5C329.5 437 328 437.215 328 437.5C328 437.775 327.1 438 326 438C323.826 438 323.627 438.198 324.715 439.285C325.555 440.126 333 440.318 333 439.5C333 439.225 333.45 439 334 439C334.834 439 335 439.334 335 441V443H330C327 443 325 443.2 325 443.5C325 443.775 324.55 444 324 444C323.45 444 323 444.225 323 444.5C323 444.775 323.9 445 325 445C326.1 445 327 445.225 327 445.5C327 445.775 327.45 446 328 446C328.55 446 329 445.775 329 445.5C329 445.225 330.125 445 331.5 445C333.667 445 334 445.133 334 446C334 446.778 333.667 447 332.5 447C331.675 447 331 447.225 331 447.5C331 447.803 328.834 448 325.5 448C320.334 448 320 448.061 320 449C320 449.952 320.334 450 327 450C330.85 450 334 450.128 334 450.285C334 451.017 332.444 452 331.286 452C330.579 452 330 452.225 330 452.5C330 452.81 327.334 453 323 453C316.334 453 316 453.048 316 454C316 454.778 316.334 455 317.5 455C318.325 455 319 455.225 319 455.5C319 455.778 320.334 456 322 456C323.667 456 325 455.778 325 455.5C325 455.215 326.5 455 328.5 455C331.667 455 332 455.095 332 456C332 456.948 331.667 457 325.5 457C321.5 457 319 457.192 319 457.5C319 457.785 317.5 458 315.5 458C312.334 458 312 458.095 312 459C312 459.961 312.334 460 320.5 460C325.834 460 329 459.813 329 459.5C329 459.225 329.225 459 329.5 459C329.775 459 330 459.675 330 460.5V462H321C315.334 462 312 462.185 312 462.5C312 462.778 310.667 463 309 463C306.334 463 306 463.111 306 464C306 464.97 306.334 465 317 465C323.05 465 328 465.128 328 465.285C328 465.443 327.679 465.893 327.286 466.285C326.757 466.814 325.2 467 321.286 467C318.095 467 316 467.198 316 467.5C316 467.812 313 468 308 468C300.334 468 300 468.041 300 469C300 469.974 300.334 470 312.5 470C320.5 470 325 470.18 325 470.5C325 470.785 323.5 471 321.5 471C319.5 471 318 471.215 318 471.5C318 471.778 316.667 472 315 472C313.334 472 312 472.222 312 472.5C312 472.815 308.738 473 303.215 473C296.267 473 294.279 473.15 293.715 473.715C292.572 474.857 292.827 475 296 475C297.667 475 299 475.222 299 475.5C299 475.8 301 476 304 476C307 476 309 475.8 309 475.5C309 475.208 310.667 475 313 475C315.334 475 317 474.792 317 474.5C317 474.225 318.125 474 319.5 474C320.875 474 322 474.225 322 474.5C322 474.775 321.55 475 321 475C320.45 475 320 475.225 320 475.5C320 475.785 318.5 476 316.5 476C314.5 476 313 476.215 313 476.5C313 476.785 311.5 477 309.5 477C307.5 477 306 477.215 306 477.5C306 477.812 303 478 298 478C293 478 290 478.188 290 478.5C290 478.775 289.325 479 288.5 479C287.334 479 287 479.222 287 480C287 480.966 287.334 481 297 481C303.334 481 307 480.817 307 480.5C307 480.225 307.9 480 309 480C310.1 480 311 480.225 311 480.5C311 480.775 310.325 481 309.5 481C308.675 481 308 481.225 308 481.5C308 481.775 307.325 482 306.5 482C305.675 482 305 482.225 305 482.5C305 482.775 303.875 483 302.5 483C301.125 483 300 483.225 300 483.5C300 483.785 298.5 484 296.5 484C294.5 484 293 484.215 293 484.5C293 484.8 291 485 288 485C285 485 283 484.8 283 484.5C283 484.222 281.667 484 280 484C278.334 484 277 483.778 277 483.5C277 483.225 276.325 483 275.5 483C274.334 483 274 483.222 274 484C274 484.666 274.334 485 275 485C275.55 485 276 485.225 276 485.5C276 485.775 276.9 486 278 486C279.1 486 280 486.225 280 486.5C280 486.778 281.334 487 283 487C284.667 487 286 487.222 286 487.5C286 487.806 288.334 488 292 488C295.667 488 298 487.806 298 487.5C298 487.225 299.125 487 300.5 487C301.875 487 303 486.775 303 486.5C303 486.225 303.9 486 305 486C306.1 486 307 485.775 307 485.5C307 485.225 307.675 485 308.5 485C309.325 485 310 485.12 310 485.267C310 485.414 309.22 486.314 308.267 487.267C306.707 488.827 306.257 489 303.767 489C302.245 489 301 489.225 301 489.5C301 489.81 298.334 490 294 490C289.667 490 287 490.19 287 490.5C287 490.775 286.55 491 286 491C284.816 491 284.746 491.317 285.715 492.285C286.572 493.143 298 493.342 298 492.5C298 492.225 298.9 492 300 492C302.385 492 302.638 492.907 300.773 494.772C299.612 495.934 299.235 496 293.773 496C290.598 496 288 496.128 288 496.285C288 496.443 288.322 496.893 288.715 497.285C289.222 497.793 290.667 498 293.715 498C297.667 498 298 498.078 298 499C298 499.55 297.775 500 297.5 500C297.225 500 297 500.675 297 501.5C297 502.325 296.775 503 296.5 503C296.222 503 296 504.334 296 506C296 507.666 295.778 509 295.5 509C295.177 509 295 515 295 526C295 537 295.177 543 295.5 543C295.778 543 296 544.334 296 546C296 547.666 296.222 549 296.5 549C296.775 549 297 549.675 297 550.5C297 551.325 297.225 552 297.5 552C297.775 552 298 552.45 298 553C298 553.905 297.667 554 294.5 554C291.334 554 291 554.095 291 555C291 555.666 291.334 556 292 556C292.55 556 293 556.225 293 556.5C293 556.775 294.125 557 295.5 557C296.875 557 298 556.775 298 556.5C298 556.225 298.45 556 299 556C299.667 556 300 556.334 300 557C300 557.867 299.667 558 297.5 558C296.125 558 295 558.225 295 558.5C295 558.778 293.667 559 292 559C290.334 559 289 558.778 289 558.5C289 558.225 288.55 558 288 558C287.424 558 287 558.334 287 558.786C287 559.796 288.204 561 289.215 561C289.647 561 290 561.225 290 561.5C290 561.792 291.667 562 294 562C296.334 562 298 561.792 298 561.5C298 561.225 298.675 561 299.5 561C300.325 561 301 560.775 301 560.5C301 559.311 302.743 560.182 305 562.5C306.34 563.875 307.738 565 308.107 565C308.477 565 309.104 565.45 309.5 566C309.897 566.55 310.621 567 311.111 567C311.6 567 312 567.225 312 567.5C312 567.775 312.45 568 313 568C313.55 568 314 568.225 314 568.5C314 568.775 314.45 569 315 569C315.55 569 316 569.225 316 569.5C316 569.775 316.45 570 317 570C317.55 570 318 570.225 318 570.5C318 570.805 315.738 571 312.215 571C307.867 571 306.251 571.177 305.715 571.714C305.322 572.107 305 572.557 305 572.714C305 572.871 309.275 573 314.5 573C320.5 573 324 573.184 324 573.5C324 573.775 323.325 574 322.5 574C321.675 574 321 574.225 321 574.5C321 574.805 318.738 575 315.215 575C310.867 575 309.251 575.177 308.715 575.714C308.322 576.107 308 576.557 308 576.714C308 576.871 310.925 577 314.5 577C318.5 577 321 577.192 321 577.5C321 577.775 320.325 578 319.5 578C318.675 578 318 578.225 318 578.5C318 578.785 316.5 579 314.5 579C312.5 579 311 579.215 311 579.5C311 579.811 308.167 580 303.5 580C299.375 580 296 580.129 296 580.286C296 581.3 297.722 582 300.215 582C301.747 582 303 582.225 303 582.5C303 582.785 304.5 583 306.5 583C308.5 583 310 582.785 310 582.5C310 582.208 311.667 582 314 582C316.334 582 318 581.792 318 581.5C318 581.222 319.334 581 321 581C322.667 581 324 580.778 324 580.5C324 580.222 325.334 580 327 580C328.667 580 330 579.778 330 579.5C330 579.222 331.334 579 333 579C334.667 579 336 578.778 336 578.5C336 578.225 336.9 578 338 578C339.1 578 340 577.775 340 577.5C340 576.724 342.483 576.911 343.322 577.75C343.988 578.416 343.988 578.584 343.322 579.25C342.909 579.662 341.993 580 341.286 580C340.579 580 340 580.225 340 580.5C340 580.806 337.667 581 334 581C330.334 581 328 581.194 328 581.5C328 581.785 326.5 582 324.5 582C322.5 582 321 582.215 321 582.5C321 582.792 319.334 583 317 583C314.667 583 313 583.208 313 583.5C313 583.806 310.667 584 307 584C303.334 584 301 584.194 301 584.5C301 585.289 283.161 585.166 282.792 584.375C282.559 583.875 282.442 583.875 282.209 584.375C281.568 585.747 281 584.866 281 582.5C281 581.125 280.775 580 280.5 580C280.225 580 280 579.325 280 578.5C280 577.675 279.775 577 279.5 577C279.225 577 279 576.325 279 575.5C279 574.675 278.775 574 278.5 574C278.225 574 278 573.658 278 573.239C278 572.313 272.782 567 271.871 567C271.514 567 270.897 566.55 270.5 566C270.104 565.45 269.429 565 269 565C268.572 565 267.897 564.55 267.5 564C267.104 563.45 266.379 563 265.89 563C265.401 563 265 562.775 265 562.5C265 562.225 264.55 562 264 562C263.45 562 263 561.775 263 561.5C263 561.225 262.569 561 262.042 561C261.515 561 260.991 560.721 260.877 560.38C260.728 559.935 260.421 560.008 259.791 560.638C258.953 561.476 258.983 561.583 260.456 562.959C262.264 564.647 262.358 565 261 565C260.45 565 260 565.225 260 565.5C260 565.775 259.647 566 259.215 566C258.457 566 257 567.127 257 567.714C257 567.871 257.675 568 258.5 568C259.325 568 260 567.775 260 567.5C260 567.225 260.675 567 261.5 567C262.325 567 263 566.775 263 566.5C263 565.741 265.474 565.902 266.286 566.714C267.255 567.683 267.185 568 266 568C265.45 568 265 568.225 265 568.5C265 568.775 264.55 569 264 569C263.334 569 263 569.334 263 570C263 570.778 263.334 571 264.5 571C265.325 571 266 570.775 266 570.5C266 570.225 266.657 570 267.459 570C268.261 570 269.018 569.719 269.141 569.375C269.293 568.951 269.688 569.112 270.367 569.875C270.917 570.493 271.735 571 272.184 571C272.633 571 273 571.225 273 571.5C273 571.775 272.55 572 272 572C271.45 572 271 572.225 271 572.5C271 572.775 270.422 573 269.715 573C268.556 573 267 573.982 267 574.714C267 574.871 267.9 575 269 575C270.1 575 271 574.775 271 574.5C271 573.733 274.478 573.906 275.286 574.714C275.679 575.107 276 576.007 276 576.714C276 577.421 276.225 578 276.5 578C276.775 578 277 578.675 277 579.5C277 580.325 276.873 581 276.718 581C276.562 581 275.324 579.86 273.967 578.466C271.713 576.152 271.429 576 270.705 576.724C269.981 577.447 270.047 577.642 271.456 578.959C272.305 579.752 273 580.761 273 581.201C273 581.641 273.225 582 273.5 582C273.775 582 274 582.45 274 583C274 583.55 274.225 584 274.5 584C274.775 584 275 584.656 275 585.458C275 586.26 275.282 587.017 275.625 587.14C275.969 587.263 276.095 587.53 275.906 587.734C275.441 588.234 273 585.746 273 584.773C273 584.334 272.569 584 272 584C271.45 584 271 583.775 271 583.5C271 583.225 270.55 583 270 583C269.45 583 269 583.225 269 583.5C269 583.775 269.225 584 269.5 584C269.775 584 270 584.401 270 584.89C270 585.379 270.45 586.104 271 586.5C271.575 586.914 272 587.794 272 588.568C272 589.31 272.279 590.009 272.621 590.123C273.067 590.272 272.997 590.575 272.371 591.201C271.597 591.974 271.417 591.988 270.75 591.321C270.338 590.909 270 590.218 270 589.786C270 589.354 269.775 589 269.5 589C269.225 589 269 588.652 269 588.227C269 587.507 266.881 585 266.273 585C266.123 585 266 585.45 266 586C266 586.55 266.225 587 266.5 587C266.775 587 267 587.9 267 589C267 590.1 267.225 591 267.5 591C267.775 591 268 591.45 268 592C268 592.55 268.225 593 268.5 593C268.775 593 269 593.225 269 593.5C269 593.775 268.55 594 268 594C267.45 594 267 594.225 267 594.5C267 594.775 265.894 595 264.542 595C263.029 595 262.004 595.238 261.877 595.62C261.732 596.056 261.385 595.957 260.715 595.286C260.044 594.615 259.944 594.268 260.38 594.123C260.721 594.009 261 593.26 261 592.458C261 591.656 261.225 591 261.5 591C261.775 591 262 590.1 262 589C262 587.9 262.225 587 262.5 587C262.775 587 263 586.42 263 585.711C263 584.86 263.681 583.768 265 582.5C266.32 581.232 267 580.14 267 579.289C267 578.58 266.884 578 266.741 578C266.107 578 260 584.56 260 585.24C260 585.658 259.775 586 259.5 586C259.225 586 259 586.675 259 587.5C259 588.325 258.775 589 258.5 589C258.225 589 258 589.9 258 591C258 592.1 257.775 593 257.5 593C257.225 593 257 593.354 257 593.786C257 594.692 255.83 596 255.019 596C254.47 596 251 599.224 251 599.734C251 599.88 251.675 600 252.5 600C253.325 600 254 599.775 254 599.5C254 599.225 254.45 599 255 599C255.55 599 256 599.225 256 599.5C256 599.775 255.775 600 255.5 600C255.225 600 255 600.45 255 601C255 601.778 255.334 602 256.5 602C257.325 602 258 601.775 258 601.5C258 601.225 258.45 601 259 601C259.55 601 260 600.775 260 600.5C260 599.616 261.756 599.967 262.5 601C262.897 601.55 263.525 602 263.896 602C264.812 602 266 603.25 266 604.214C266 604.646 266.225 605 266.5 605C266.775 605 267 605.45 267 606C267 606.55 267.225 607 267.5 607C267.775 607 268 607.45 268 608C268 608.55 267.872 609 267.715 609C267.214 609 266 607.593 266 607.013C266 606.451 263.782 604 263.273 604C263.123 604 263 604.675 263 605.5C263 606.325 263.225 607 263.5 607C263.775 607 264 607.45 264 608C264 608.55 264.225 609 264.5 609C264.775 609 265 610.106 265 611.458C265 612.936 265.25 614.033 265.625 614.208C266.125 614.441 266.125 614.559 265.625 614.792C265.282 614.952 265 615.515 265 616.042C265 616.667 264.652 617 264 617C263.222 617 263 616.666 263 615.5C263 614.675 262.775 614 262.5 614C262.225 614 262 613.55 262 613C262 612.334 261.667 612 261 612C260.167 612 260 612.334 260 614C260 615.1 260.225 616 260.5 616C261.267 616 261.094 619.478 260.286 620.286C259.317 621.255 259 621.184 259 620C259 619.45 258.775 619 258.5 619C258.225 619 258 618.646 258 618.214C258 617.782 257.679 617.107 257.286 616.714C256.467 615.895 255 615.757 255 616.5C255 616.775 255.225 617 255.5 617C255.775 617 256 617.45 256 618C256 618.55 256.225 619 256.5 619C256.775 619 257 619.45 257 620C257 620.55 257.225 621 257.5 621C257.775 621 258 621.225 258 621.5C258 621.775 257.325 622 256.5 622C255.675 622 255 622.225 255 622.5C255 622.775 253.875 623 252.5 623C251.125 623 250 622.775 250 622.5C250 622.225 250.225 622 250.5 622C250.775 622 251 621.325 251 620.5C251 619.675 251.225 619 251.5 619C251.775 619 252 618.325 252 617.5C252 616.675 252.225 616 252.5 616C252.775 616 253 615.55 253 615C253 614.45 253.225 614 253.5 614C253.775 614 254 613.599 254 613.11C254 612.621 254.45 611.896 255 611.5C255.55 611.104 256 610.476 256 610.104C256 609.189 257.251 608 258.215 608C258.667 608 259 607.576 259 607C259 605.171 256.707 605.767 254.237 608.237C253.007 609.467 252 610.768 252 611.127C252 611.486 251.55 612.104 251 612.5C250.45 612.896 250 613.621 250 614.11C250 614.599 249.775 615 249.5 615C249.225 615 249 615.45 249 616C249 616.55 248.775 617 248.5 617C248.225 617 248 617.9 248 619C248 620.1 247.775 621 247.5 621C247.225 621 247 621.675 247 622.5C247 623.325 246.775 624 246.5 624C246.225 624 246 623.775 246 623.5C246 623.225 245.325 623 244.5 623C243.675 623 243 622.775 243 622.5C243 622.225 243.225 622 243.5 622C243.775 622 244 621.55 244 621C244 620.45 244.225 620 244.5 620C244.775 620 245 619.55 245 619C245 618.45 245.225 618 245.5 618C245.775 618 246 617.55 246 617C246 616.45 246.225 616 246.5 616C246.775 616 247 615.191 247 614.201C247 612.846 247.371 612.055 248.5 611C249.325 610.229 250 609.288 250 608.91C250 608.531 250.45 607.896 251 607.5C251.55 607.104 252 606.379 252 605.89C252 605.401 252.225 605 252.5 605C252.775 605 253 604.55 253 604C253 603.432 252.667 603 252.228 603C251.227 603 249 605.227 249 606.227C249 606.652 248.775 607 248.5 607C248.225 607 248 606.325 248 605.5C248 604.675 247.775 604 247.5 604C247.225 604 247 603.55 247 603C247 602.222 246.667 602 245.5 602C244.675 602 244 601.775 244 601.5C244 601.222 242.667 601 241 601C238.334 601 238 601.111 238 602C238 602.867 238.334 603 240.5 603C242.667 603 243 603.133 243 604C243 604.55 243.225 605 243.5 605C243.775 605 244 605.45 244 606C244 606.666 243.667 607 243 607C242.45 607 242 606.775 242 606.5C242 606.225 240.875 606 239.5 606C238.125 606 237 606.225 237 606.5C237 606.775 237.45 607 238 607C238.55 607 239 607.225 239 607.5C239 607.775 239.45 608 240 608C240.55 608 241 608.225 241 608.5C241 608.775 241.354 609 241.786 609C242.218 609 242.893 609.321 243.286 609.714C244.105 610.533 244.243 612 243.5 612C243.225 612 243 612.804 243 613.786C243 614.768 242.679 615.893 242.286 616.286C241.317 617.255 241 617.184 241 616C241 615.45 240.775 615 240.5 615C240.225 615 240 614.652 240 614.227C240 613.227 237.773 611 236.773 611C235.668 611 235.818 612.648 237 613.5C237.55 613.896 238 614.621 238 615.11C238 615.599 238.225 616 238.5 616C238.775 616 239 616.675 239 617.5C239 618.325 239.225 619 239.5 619C239.775 619 240 619.45 240 620C240 620.666 239.667 621 239 621C238.432 621 238 620.666 238 620.227C238 619.227 235.773 617 234.773 617C233.668 617 233.818 618.648 235 619.5C235.55 619.896 236 620.621 236 621.11C236 621.599 236.225 622 236.5 622C237.243 622 237.105 623.467 236.286 624.286C235.317 625.255 235 625.184 235 624C235 623.45 234.775 623 234.5 623C234.225 623 234 622.55 234 622C234 621.45 233.775 621 233.5 621C233.225 621 233 620.55 233 620C233 619.334 232.667 619 232 619C231.222 619 231 619.334 231 620.5C231 621.325 231.225 622 231.5 622C231.775 622 232 622.45 232 623C232 623.55 232.225 624 232.5 624C232.775 624 233 624.45 233 625C233 625.889 232.667 626 230 626C228.334 626 227 625.778 227 625.5C227 625.225 226.55 625 226 625C225.222 625 225 624.666 225 623.5C225 622.675 225.225 622 225.5 622C225.775 622 226 621.55 226 621C226 620.45 226.225 620 226.5 620C226.775 620 227 619.655 227 619.234C227 618.238 230.238 615 231.234 615C231.655 615 232 614.775 232 614.5C232 614.225 232.45 614 233 614C233.667 614 234 613.666 234 613C234 612.334 233.667 612 233 612C232.45 612 232 612.225 232 612.5C232 612.775 231.55 613 231 613C230.45 613 230 613.225 230 613.5C230 613.775 229.657 614 229.237 614C228.245 614 224 618.244 224 619.237C224 619.656 223.775 620 223.5 620C223.225 620 223 620.9 223 622C223 623.1 222.866 624 222.701 624C222.536 624 221.771 623.325 221 622.5C220.23 621.675 219.239 621 218.8 621C218.36 621 218 620.871 218 620.714C218 620.127 219.457 619 220.215 619C220.647 619 221 618.775 221 618.5C221 618.225 221.345 618 221.767 618C222.762 618 226 614.762 226 613.766C226 613.345 226.36 613 226.8 613C227.239 613 228.23 612.325 229 611.5C229.771 610.675 230.671 610 231 610C231.33 610 232.23 609.325 233 608.5C233.771 607.675 234.761 607 235.201 607C235.667 607 236 606.583 236 606C236 605.334 235.667 605 235 605C234.45 605 234 605.225 234 605.5C234 605.775 233.325 606 232.5 606C231.675 606 231 606.225 231 606.5C231 606.775 230.775 607 230.5 607C230.225 607 230 606.646 230 606.214C230 605.305 231.171 604 231.987 604C232.818 604 235 601.663 235 600.773C235 600.348 234.775 600 234.5 600C234.225 600 234 600.225 234 600.5C234 600.775 233.1 601 232 601C230.111 601 230 600.916 230 599.5C230 598.166 230.167 598 231.5 598C232.325 598 233 598.225 233 598.5C233 598.775 234.125 599 235.5 599C236.875 599 238 599.225 238 599.5C238 599.778 239.334 600 241 600C242.667 600 244 599.778 244 599.5C244 599.225 244.9 599 246 599C247.1 599 248 598.775 248 598.5C248 598.225 248.45 598 249 598C249.55 598 250 597.775 250 597.5C250 597.225 250.345 597 250.767 597C251.762 597 255 593.762 255 592.766C255 592.345 255.225 592 255.5 592C255.775 592 256 591.55 256 591C256 590.45 256.225 590 256.5 590C256.786 590 257 588.5 257 586.5C257 584.5 257.215 583 257.5 583C257.775 583 258 582.55 258 582C258 581.45 258.225 581 258.5 581C258.775 581 259 580.374 259 579.61C259 578.794 259.413 577.924 260 577.5C260.55 577.104 261 576.398 261 575.932C261 575.465 261.279 574.991 261.621 574.877C262.068 574.728 262 574.428 261.377 573.805C260.559 572.987 260.447 573.007 259.257 574.198C258.566 574.889 258 575.706 258 576.013C258 576.829 256.695 578 255.786 578C254.554 578 254.725 574.419 256 573.5C256.587 573.076 257 572.206 257 571.39C257 570.334 256.76 570 256 570C255.432 570 255 570.334 255 570.773C255 571.198 254.435 572.111 253.744 572.802C252.632 573.914 252.402 573.973 251.744 573.315C250.726 572.297 250.812 571.357 252 570.5C253.25 569.6 253.32 568 252.111 568C251.621 568 250.897 568.45 250.5 569C250.104 569.55 249.484 570 249.123 570C248.5 570 245 566.831 245 566.266C245 566.12 245.675 566 246.5 566C247.325 566 248 565.775 248 565.5C248 565.225 248.675 565 249.5 565C250.325 565 251 564.775 251 564.5C251 564.225 251.45 564 252 564C252.55 564 253 563.775 253 563.5C253 563.225 253.45 563 254 563C254.55 563 255 562.775 255 562.5C255 562.225 255.342 562 255.76 562C256.748 562 263 555.748 263 554.76C263 554.342 263.225 554 263.5 554C263.775 554 264 553.325 264 552.5C264 551.675 264.225 551 264.5 551C264.8 551 265 549 265 546C265 543 264.8 541 264.5 541C264.225 541 264 540.656 264 540.237C264 539.244 259.756 535 258.763 535C258.344 535 258 534.775 258 534.5C258 534.225 257.55 534 257 534C256.45 534 256 533.775 256 533.5C256 533.225 255.1 533 254 533C252.9 533 252 532.775 252 532.5C252 532.225 250.875 532 249.5 532C248.125 532 247 531.775 247 531.5C247 531.208 245.334 531 243 531C240.667 531 239 531.208 239 531.5C239 531.775 237.875 532 236.5 532C235.125 532 234 532.225 234 532.5C234 532.775 233.55 533 233 533C232.334 533 232 533.334 232 534C232 534.778 232.334 535 233.5 535C234.325 535 235 535.225 235 535.5C235 535.775 234.775 536 234.5 536C234.225 536 234 536.45 234 537C234 537.626 234.334 538 234.89 538C235.379 538 236.104 537.55 236.5 537C236.897 536.45 237.572 536 238 536C238.429 536 239.104 535.55 239.5 535C240.475 533.648 244 533.561 244 534.89C244 535.379 243.55 536.104 243 536.5C241.967 537.244 241.616 539 242.5 539C242.775 539 243 538.775 243 538.5C243 538.225 243.401 538 243.89 538C244.379 538 245.104 537.55 245.5 537C245.897 536.45 246.621 536 247.111 536C247.6 536 248 535.775 248 535.5C248 535.225 248.45 535 249 535C249.55 535 250 535.225 250 535.5C250 535.775 250.45 536 251 536C251.55 536 252 536.176 252 536.39C252 536.604 251.55 537.104 251 537.5C249.967 538.244 249.616 540 250.5 540C250.775 540 251 539.775 251 539.5C251 539.225 251.45 539 252 539C252.55 539 253 538.775 253 538.5C253 538.225 254.02 538 255.267 538C257.187 538 257.799 538.266 259.267 539.734L261 541.466V546.234C261 549.078 260.799 551 260.5 551C260.225 551 260 551.348 260 551.773C260 552.493 257.881 555 257.273 555C257.123 555 257 554.55 257 554C257 553.45 256.775 553 256.5 553C256.225 553 256 552.55 256 552C256 551.45 255.775 551 255.5 551C255.225 551 255 550.196 255 549.214C255 547.323 254.089 546 252.786 546C252.203 546 252 546.515 252 548C252 549.1 252.225 550 252.5 550C252.775 550 253 550.675 253 551.5C253 552.325 253.225 553 253.5 553C253.775 553 254 553.368 254 553.817C254 554.266 254.475 555.044 255.055 555.547C256.004 556.37 256.033 556.539 255.341 557.231C254.918 557.654 254.218 558 253.786 558C253.354 558 253 558.225 253 558.5C253 558.775 252.55 559 252 559C251.222 559 251 558.666 251 557.5C251 556.675 250.775 556 250.5 556C250.225 556 250 554.875 250 553.5C250 552.125 249.775 551 249.5 551C249.225 551 249 550.1 249 549C249 547.334 248.834 547 248 547C247.061 547 247 547.333 247 552.5C247 555.833 247.197 558 247.5 558C247.775 558 248 558.675 248 559.5C248 560.666 247.778 561 247 561C246.45 561 246 561.225 246 561.5C246 561.775 245.325 562 244.5 562C243.334 562 243 561.778 243 561C243 560.45 242.775 560 242.5 560C242.204 560 242 558.167 242 555.5C242 552.833 242.204 551 242.5 551C243.267 551 243.094 547.522 242.286 546.714C241.245 545.673 241 545.822 241 547.5C241 548.325 240.775 549 240.5 549C240.225 549 240 550.125 240 551.5C240 552.875 239.775 554 239.5 554C239.225 554 239 555.125 239 556.5C239 557.875 239.225 559 239.5 559C239.775 559 240 559.675 240 560.5C240 561.834 239.834 562 238.5 562H237V556.5C237 553.167 236.803 551 236.5 551C236.222 551 236 549.666 236 548C236 545.333 235.889 545 235 545C234.111 545 234 545.333 234 548C234 550.667 233.889 551 233 551C232.222 551 232 550.666 232 549.5C232 548.675 231.775 548 231.5 548C231.225 548 231 547.325 231 546.5C231 545.334 230.778 545 230 545C229.222 545 229 545.334 229 546.5C229 547.325 228.775 548 228.5 548C228.225 548 228 547.775 228 547.5C228 547.225 227.647 547 227.215 547C226.782 547 226.088 546.659 225.671 546.242C224.993 545.564 225.076 545.33 226.456 544.041C227.305 543.248 228 542.239 228 541.799C228 541.359 228.225 541 228.5 541C228.775 541 229 540.325 229 539.5C229 538.675 229.225 538 229.5 538C229.808 538 230 535.5 230 531.5C230 527.5 229.808 525 229.5 525C229.225 525 229 524.325 229 523.5C229 522.675 228.775 522 228.5 522C228.225 522 228 521.658 228 521.24C228 520.252 221.748 514 220.76 514C220.342 514 220 513.775 220 513.5C220 513.225 219.1 513 218 513C216.9 513 216 512.775 216 512.5C216 512.208 214.334 512 212 512C209.667 512 208 511.792 208 511.5C208 511.225 207.6 511 207.111 511C206.621 511 205.897 510.55 205.5 510C205.104 509.45 204.429 509 204 509C203.572 509 202.897 508.55 202.5 508C202.104 507.45 201.469 507 201.09 507C200.712 507 199.771 506.325 199 505.5C198.23 504.675 197.239 504 196.8 504C196.36 504 196 503.775 196 503.5C196 503.225 195.55 503 195 503C194.45 503 194 502.775 194 502.5C194 502.225 193.55 502 193 502C192.45 502 192 501.775 192 501.5C192 501.225 191.1 501 190 501C188.9 501 188 500.775 188 500.5C188 500.225 187.55 500 187 500C186.45 500 186 499.775 186 499.5C186 499.225 185.6 499 185.111 499C184.621 499 183.897 498.55 183.5 498C183.104 497.45 182.429 497 182 497C181.572 497 180.897 496.55 180.5 496C180.104 495.45 179.429 495 179 495C178.572 495 177.897 494.55 177.5 494C177.104 493.45 176.379 493 175.89 493C175.401 493 175 492.775 175 492.5C175 492.225 174.1 492 173 492C171.9 492 171 491.775 171 491.5C171 491.225 170.325 491 169.5 491C168.675 491 168 490.775 168 490.5C168 490.225 167.1 490 166 490C164.9 490 164 489.775 164 489.5C164 489.225 162.875 489 161.5 489C160.125 489 159 488.775 159 488.5C159 488.225 158.55 488 158 488C157.45 488 157 487.775 157 487.5C157 487.225 156.6 487 156.111 487C155.621 487 154.897 486.55 154.5 486C154.104 485.45 153.379 485 152.89 485C152.401 485 152 484.775 152 484.5C152 484.225 151.325 484 150.5 484C149.675 484 149 483.775 149 483.5C149 483.208 147.334 483 145 483C142.667 483 141 482.792 141 482.5C141 482.225 140.325 482 139.5 482C138.334 482 138 481.778 138 481C138 480.334 137.667 480 137 480C136.45 480 136 479.775 136 479.5C136 479.225 135.325 479 134.5 479C133.675 479 133 478.775 133 478.5C133 478.225 132.375 478 131.611 478C130.795 478 129.924 477.587 129.5 477C129.104 476.45 128.379 476 127.89 476C127.401 476 127 475.775 127 475.5C127 475.225 126.325 475 125.5 475C124.675 475 124 474.775 124 474.5C124 474.225 123.325 474 122.5 474C121.675 474 121 473.775 121 473.5C121 473.225 120.325 473 119.5 473C118.675 473 118 472.775 118 472.5C118 472.225 116.875 472 115.5 472C114.125 472 113 471.775 113 471.5C113 471.225 111.875 471 110.5 471C109.125 471 108 470.775 108 470.5C108 470.225 107.325 470 106.5 470C105.675 470 105 469.775 105 469.5C105 469.225 104.325 469 103.5 469C102.675 469 102 468.775 102 468.5C102 468.225 101.1 468 100 468C98.9 468 98 467.775 98 467.5C98 467.225 96.875 467 95.5 467C94.125 467 93 466.775 93 466.5C93 466.222 91.6665 466 90 466C88.3335 466 87 465.778 87 465.5C87 465.222 85.6665 465 84 465C82.3335 465 81 464.778 81 464.5C81 464.225 80.1 464 79 464C77.9 464 77 463.775 77 463.5C77 463.204 75.1665 463 72.5 463C69.8335 463 68 462.796 68 462.5C68 462.222 66.6665 462 65 462C63.3335 462 62 461.778 62 461.5C62 461.225 61.325 461 60.5 461C59.675 461 59 460.775 59 460.5C59 460.201 57.0715 460 54.2145 460C50.7335 460 49.234 459.805 48.7145 459.285C48.3215 458.893 48 458.443 48 458.285C48 458.128 50.025 458 52.5 458C55.1665 458 57 458.204 57 458.5C57 458.775 58.125 459 59.5 459C60.875 459 62 459.225 62 459.5C62 459.815 65.3335 460 71 460C76.6665 460 80 460.185 80 460.5C80 460.778 81.3335 461 83 461C84.6665 461 86 461.222 86 461.5C86 461.775 87.125 462 88.5 462C89.875 462 91 462.225 91 462.5C91 462.775 91.675 463 92.5 463C93.325 463 94 463.225 94 463.5C94 463.792 95.6665 464 98 464C100.334 464 102 464.208 102 464.5C102 464.775 102.9 465 104 465C105.1 465 106 465.225 106 465.5C106 465.796 107.834 466 110.5 466C113.167 466 115 466.204 115 466.5C115 466.785 116.5 467 118.5 467C120.5 467 122 467.215 122 467.5C122 467.775 122.45 468 123 468C123.55 468 124 468.225 124 468.5C124 468.775 124.9 469 126 469C127.1 469 128 469.225 128 469.5C128 469.775 128.45 470 129 470C129.55 470 130 470.225 130 470.5C130 470.775 130.45 471 131 471C131.55 471 132 471.225 132 471.5C132 471.775 132.9 472 134 472C135.1 472 136 472.225 136 472.5C136 472.792 137.667 473 140 473C142.334 473 144 473.208 144 473.5C144 473.775 144.626 474 145.39 474C146.206 474 147.077 474.413 147.5 475C148.002 475.697 148.795 476 150.111 476C151.15 476 152 476.225 152 476.5C152 476.775 152.675 477 153.5 477C154.325 477 155 477.225 155 477.5C155 477.775 155.675 478 156.5 478C157.325 478 158 478.225 158 478.5C158 478.775 158.675 479 159.5 479C160.325 479 161 479.225 161 479.5C161 479.775 161.45 480 162 480C162.55 480 163 480.225 163 480.5C163 480.775 163.675 481 164.5 481C165.325 481 166 481.225 166 481.5C166 481.775 166.45 482 167 482C167.55 482 168 482.225 168 482.5C168 482.775 168.45 483 169 483C169.55 483 170 483.225 170 483.5C170 483.775 170.45 484 171 484C171.55 484 172 484.225 172 484.5C172 484.775 172.9 485 174 485C175.1 485 176 485.225 176 485.5C176 485.775 177.125 486 178.5 486C179.875 486 181 486.225 181 486.5C181 486.775 181.675 487 182.5 487C183.325 487 184 487.225 184 487.5C184 487.775 184.675 488 185.5 488C186.325 488 187 488.225 187 488.5C187 488.775 187.355 489 187.789 489C188.224 489 189.443 489.9 190.5 491C191.557 492.1 192.777 493 193.211 493C193.645 493 194 493.225 194 493.5C194 493.775 194.401 494 194.89 494C195.379 494 196.104 494.45 196.5 495C196.897 495.55 197.572 496 198 496C198.429 496 199.104 496.45 199.5 497C199.924 497.587 200.795 498 201.611 498C202.375 498 203 498.225 203 498.5C203 498.775 203.675 499 204.5 499C205.325 499 206 499.225 206 499.5C206 499.775 206.401 500 206.89 500C207.379 500 208.104 500.45 208.5 501C208.897 501.55 209.621 502 210.111 502C210.6 502 211 502.225 211 502.5C211 502.775 211.45 503 212 503C212.55 503 213 503.225 213 503.5C213 503.775 213.45 504 214 504C214.55 504 215 504.225 215 504.5C215 504.775 215.401 505 215.89 505C216.379 505 217.104 505.45 217.5 506C217.924 506.587 218.795 507 219.611 507C220.375 507 221 507.225 221 507.5C221 507.775 221.675 508 222.5 508C223.325 508 224 508.225 224 508.5C224 508.775 224.36 509 224.8 509C225.239 509 226.23 509.675 227 510.5C227.771 511.325 228.761 512 229.201 512C229.641 512 230 512.225 230 512.5C230 512.775 230.45 513 231 513C231.55 513 232 513.225 232 513.5C232 513.775 232.675 514 233.5 514C234.325 514 235 514.225 235 514.5C235 514.775 235.45 515 236 515C236.55 515 237 515.225 237 515.5C237 515.775 237.45 516 238 516C238.55 516 239 516.225 239 516.5C239 516.775 239.675 517 240.5 517C241.531 517 242 517.246 242 517.786C242 518.218 242.338 518.909 242.75 519.321C243.417 519.988 243.584 519.988 244.25 519.321C244.663 518.909 245 518.32 245 518.013C245 516.977 242.555 515 241.273 515C240.573 515 240 514.775 240 514.5C240 514.225 239.6 514 239.111 514C238.621 514 237.897 513.55 237.5 513C236.998 512.303 236.206 512 234.89 512C233.851 512 233 511.775 233 511.5C233 511.225 232.6 511 232.111 511C231.621 511 230.897 510.55 230.5 510C230.104 509.45 229.429 509 229 509C228.572 509 227.897 508.55 227.5 508C227.104 507.45 226.379 507 225.89 507C225.401 507 225 506.775 225 506.5C225 506.225 224.55 506 224 506C223.45 506 223 505.775 223 505.5C223 505.225 222.325 505 221.5 505C220.675 505 220 504.775 220 504.5C220 504.225 219.55 504 219 504C218.45 504 218 503.775 218 503.5C218 503.225 217.55 503 217 503C216.45 503 216 502.775 216 502.5C216 502.225 215.325 502 214.5 502C213.675 502 213 501.775 213 501.5C213 501.225 212.641 501 212.201 501C211.761 501 210.771 500.325 210 499.5C209.139 498.577 208.099 498 207.3 498C206.585 498 206 497.775 206 497.5C206 497.225 205.325 497 204.5 497C203.675 497 203 496.775 203 496.5C203 496.225 202.55 496 202 496C201.45 496 201 495.775 201 495.5C201 495.225 200.6 495 200.111 495C199.621 495 198.897 494.55 198.5 494C198.104 493.45 197.429 493 197 493C196.572 493 195.897 492.55 195.5 492C195.104 491.45 194.429 491 194 491C193.572 491 192.897 490.55 192.5 490C192.104 489.45 191.429 489 191 489C190.572 489 189.897 488.55 189.5 488C189.104 487.45 188.379 487 187.89 487C187.401 487 187 486.775 187 486.5C187 486.225 186.325 486 185.5 486C184.675 486 184 485.775 184 485.5C184 485.225 183.325 485 182.5 485C181.675 485 181 484.775 181 484.5C181 484.225 180.1 484 179 484C177.9 484 177 483.775 177 483.5C177 483.225 176.1 483 175 483C173.9 483 173 482.775 173 482.5C173 482.225 172.375 482 171.611 482C170.795 482 169.924 481.587 169.5 481C168.961 480.252 168.206 480 166.5 480C164.795 480 164.04 479.748 163.5 479C163.104 478.45 162.379 478 161.89 478C161.401 478 161 477.775 161 477.5C161 477.225 160.1 477 159 477C157.9 477 157 476.775 157 476.5C157 476.225 156.325 476 155.5 476C154.675 476 154 475.775 154 475.5C154 475.225 152.966 475 151.701 475C149.791 475 149.164 474.746 148 473.5C146.766 472.179 146.265 472 143.8 472C142.26 472 141 471.775 141 471.5C141 471.222 139.667 471 138 471C136.334 471 135 470.778 135 470.5C135 470.225 134.325 470 133.5 470C132.675 470 132 469.775 132 469.5C132 469.225 131.325 469 130.5 469C129.675 469 129 468.775 129 468.5C129 468.225 128.1 468 127 468C125.9 468 125 467.775 125 467.5C125 467.225 124.55 467 124 467C123.45 467 123 466.775 123 466.5C123 466.225 122.55 466 122 466C121.45 466 121 465.775 121 465.5C121 465.194 118.667 465 115 465C111.334 465 109 464.806 109 464.5C109 464.225 108.1 464 107 464C105.9 464 105 463.775 105 463.5C105 463.204 103.167 463 100.5 463C97.8335 463 96 462.796 96 462.5C96 462.225 95.1 462 94 462C92.9 462 92 461.775 92 461.5C92 461.225 91.325 461 90.5 461C89.675 461 89 460.775 89 460.5C89 460.215 87.5 460 85.5 460C83.5 460 82 459.785 82 459.5C82 459.225 80.875 459 79.5 459C78.125 459 77 458.775 77 458.5C77 458.225 76.1 458 75 458C73.9 458 73 457.775 73 457.5C73 457.225 72.325 457 71.5 457C70.675 457 70 456.775 70 456.5C70 456.188 73 456 78 456C83 456 86 456.188 86 456.5C86 456.785 87.5 457 89.5 457C91.5 457 93 457.215 93 457.5C93 457.785 94.5 458 96.5 458C98.5 458 100 458.215 100 458.5C100 458.775 100.675 459 101.5 459C102.325 459 103 459.225 103 459.5C103 459.775 103.675 460 104.5 460C105.325 460 106 460.225 106 460.5C106 460.775 106.675 461 107.5 461C108.325 461 109 461.225 109 461.5C109 461.803 111.167 462 114.5 462C117.834 462 120 462.197 120 462.5C120 462.775 120.675 463 121.5 463C122.325 463 123 463.225 123 463.5C123 463.775 123.9 464 125 464C126.1 464 127 464.225 127 464.5C127 464.796 128.834 465 131.5 465C134.167 465 136 465.204 136 465.5C136 465.775 137.125 466 138.5 466C139.875 466 141 466.225 141 466.5C141 466.775 141.9 467 143 467C144.1 467 145 467.225 145 467.5C145 467.775 145.9 468 147 468C148.1 468 149 468.225 149 468.5C149 468.775 149.675 469 150.5 469C151.325 469 152 469.225 152 469.5C152 469.775 152.45 470 153 470C153.55 470 154 470.225 154 470.5C154 470.775 154.9 471 156 471C157.1 471 158 471.225 158 471.5C158 471.785 159.5 472 161.5 472C163.5 472 165 472.215 165 472.5C165 472.775 165.675 473 166.5 473C167.325 473 168 473.225 168 473.5C168 473.775 168.9 474 170 474C171.1 474 172 474.225 172 474.5C172 474.775 173.125 475 174.5 475C175.875 475 177 475.225 177 475.5C177 475.775 177.675 476 178.5 476C179.325 476 180 476.225 180 476.5C180 476.775 180.45 477 181 477C181.55 477 182 477.225 182 477.5C182 477.775 182.45 478 183 478C183.55 478 184 478.225 184 478.5C184 478.775 184.9 479 186 479C187.1 479 188 479.225 188 479.5C188 479.775 189.125 480 190.5 480C191.875 480 193 480.225 193 480.5C193 480.775 193.675 481 194.5 481C195.325 481 196 481.225 196 481.5C196 481.775 196.675 482 197.5 482C198.325 482 199 482.225 199 482.5C199 482.775 199.675 483 200.5 483C201.325 483 202 483.225 202 483.5C202 483.775 202.675 484 203.5 484C204.325 484 205 484.225 205 484.5C205 484.775 205.675 485 206.5 485C207.325 485 208 485.225 208 485.5C208 485.775 208.675 486 209.5 486C210.325 486 211 486.225 211 486.5C211 486.775 211.675 487 212.5 487C213.325 487 214 487.225 214 487.5C214 487.775 214.675 488 215.5 488C216.325 488 217 488.225 217 488.5C217 488.775 217.675 489 218.5 489C219.325 489 220 489.225 220 489.5C220 489.775 220.45 490 221 490C221.55 490 222 490.225 222 490.5C222 490.775 222.675 491 223.5 491C224.325 491 225 491.225 225 491.5C225 491.775 225.45 492 226 492C226.55 492 227 492.225 227 492.5C227 492.775 227.45 493 228 493C228.55 493 229 493.225 229 493.5C229 493.775 229.45 494 230 494C230.55 494 231 494.225 231 494.5C231 494.775 231.45 495 232 495C232.55 495 233 495.225 233 495.5C233 495.775 233.675 496 234.5 496C235.325 496 236 496.225 236 496.5C236 496.775 236.45 497 237 497C237.55 497 238 497.225 238 497.5C238 497.775 238.675 498 239.5 498C240.325 498 241 498.225 241 498.5C241 498.775 241.45 499 242 499C242.55 499 243 499.225 243 499.5C243 499.775 243.401 500 243.89 500C244.379 500 245.104 500.45 245.5 501C245.897 501.55 246.621 502 247.111 502C247.6 502 248 502.225 248 502.5C248 502.775 248.45 503 249 503C249.55 503 250 503.225 250 503.5C250 503.775 250.45 504 251 504C251.55 504 252 504.225 252 504.5C252 504.775 252.45 505 253 505C253.55 505 254 505.225 254 505.5C254 505.775 254.45 506 255 506C255.55 506 256 506.225 256 506.5C256 506.775 256.45 507 257 507C257.55 507 258 507.225 258 507.5C258 507.775 258.675 508 259.5 508C260.325 508 261 508.225 261 508.5C261 508.775 261.401 509 261.89 509C262.379 509 263.104 509.45 263.5 510C263.897 510.55 264.621 511 265.111 511C265.6 511 266 511.225 266 511.5C266 511.775 266.45 512 267 512C267.55 512 268 512.225 268 512.5C268 512.775 268.36 513 268.8 513C269.239 513 270.23 513.675 271 514.5C271.771 515.325 272.761 516 273.201 516C273.641 516 274 516.225 274 516.5C274 516.775 274.675 517 275.5 517C276.325 517 277 517.225 277 517.5C277 517.775 277.675 518 278.5 518C279.325 518 280 517.871 280 517.714C280 517.127 278.544 516 277.786 516C277.354 516 277 515.775 277 515.5C277 515.225 276.55 515 276 515C275.45 515 275 514.775 275 514.5C275 514.225 274.641 514 274.201 514C273.761 514 272.771 513.325 272 512.5C271.23 511.675 270.239 511 269.8 511C269.36 511 269 510.775 269 510.5C269 510.225 268.325 510 267.5 510C266.675 510 266 509.775 266 509.5C266 509.225 265.55 509 265 509C264.45 509 264 508.775 264 508.5C264 508.225 263.55 508 263 508C262.45 508 262 507.775 262 507.5C262 507.225 261.55 507 261 507C260.45 507 260 506.775 260 506.5C260 506.225 259.55 506 259 506C258.45 506 258 505.775 258 505.5C258 505.225 257.55 505 257 505C256.45 505 256 504.775 256 504.5C256 504.225 255.375 504 254.611 504C253.795 504 252.924 503.587 252.5 503C252.104 502.45 251.379 502 250.89 502C250.401 502 250 501.775 250 501.5C250 501.225 249.6 501 249.111 501C248.621 501 247.897 500.55 247.5 500C247.104 499.45 246.429 499 246 499C245.572 499 244.897 498.55 244.5 498C244.077 497.413 243.206 497 242.39 497C241.626 497 241 496.775 241 496.5C241 496.225 240.1 496 239 496C237.9 496 237 495.775 237 495.5C237 495.225 236.55 495 236 495C235.45 495 235 494.775 235 494.5C235 494.225 234.55 494 234 494C233.45 494 233 493.775 233 493.5C233 493.225 232.6 493 232.111 493C231.621 493 230.897 492.55 230.5 492C230.077 491.413 229.206 491 228.39 491C227.626 491 227 490.775 227 490.5C227 490.225 226.55 490 226 490C225.45 490 225 489.775 225 489.5C225 489.225 224.325 489 223.5 489C222.675 489 222 488.775 222 488.5C222 488.225 221.325 488 220.5 488C219.675 488 219 487.775 219 487.5C219 487.225 218.325 487 217.5 487C216.675 487 216 486.775 216 486.5C216 486.225 215.325 486 214.5 486C213.675 486 213 485.775 213 485.5C213 485.225 212.325 485 211.5 485C210.675 485 210 484.775 210 484.5C210 484.225 209.55 484 209 484C208.45 484 208 483.775 208 483.5C208 483.225 207.325 483 206.5 483C205.675 483 205 482.775 205 482.5C205 482.225 204.55 482 204 482C203.45 482 203 481.775 203 481.5C203 481.225 202.1 481 201 481C199.9 481 199 480.775 199 480.5C199 480.225 198.325 480 197.5 480C196.675 480 196 479.775 196 479.5C196 479.222 194.667 479 193 479C191.334 479 190 478.778 190 478.5C190 478.225 189.1 478 188 478C186.9 478 186 477.775 186 477.5C186 477.225 185.55 477 185 477C184.45 477 184 476.775 184 476.5C184 476.225 183.55 476 183 476C182.45 476 182 475.775 182 475.5C182 475.225 181.55 475 181 475C180.45 475 180 474.775 180 474.5C180 474.225 178.875 474 177.5 474C176.125 474 175 473.775 175 473.5C175 473.225 173.875 473 172.5 473C171.125 473 170 472.775 170 472.5C170 472.225 169.325 472 168.5 472C167.675 472 167 471.775 167 471.5C167 471.225 166.325 471 165.5 471C164.675 471 164 470.775 164 470.5C164 470.208 162.334 470 160 470C157.667 470 156 469.792 156 469.5C156 469.225 155.55 469 155 469C154.45 469 154 468.775 154 468.5C154 468.225 153.1 468 152 468C150.9 468 150 467.775 150 467.5C150 467.225 149.1 467 148 467C146.9 467 146 466.775 146 466.5C146 466.225 145.1 466 144 466C142.9 466 142 465.775 142 465.5C142 465.225 141.325 465 140.5 465C139.675 465 139 464.775 139 464.5C139 464.208 137.334 464 135 464C132.667 464 131 463.792 131 463.5C131 463.215 129.5 463 127.5 463C125.5 463 124 462.785 124 462.5C124 462.225 123.325 462 122.5 462C121.675 462 121 461.775 121 461.5C121 461.2 119 461 116 461C113 461 111 460.8 111 460.5C111 460.225 110.1 460 109 460C107.9 460 107 459.775 107 459.5C107 459.225 106.1 459 105 459C103.9 459 103 458.775 103 458.5C103 458.225 102.325 458 101.5 458C100.675 458 100 457.775 100 457.5C100 457.222 98.6665 457 97 457C95.3335 457 94 456.778 94 456.5C94 456.225 92.875 456 91.5 456C90.125 456 89 455.775 89 455.5C89 455.225 89.9 455 91 455C92.1 455 93 454.775 93 454.5C93 454.225 93.675 454 94.5 454C95.325 454 96 454.225 96 454.5C96 454.775 97.125 455 98.5 455C99.875 455 101 454.775 101 454.5C101 454.225 101.225 454 101.5 454C101.775 454 102 454.45 102 455C102 455.55 102.225 456 102.5 456C102.775 456 103 455.775 103 455.5C103 455.204 104.834 455 107.5 455C110.167 455 112 455.204 112 455.5C112 455.792 113.667 456 116 456C118.334 456 120 456.208 120 456.5C120 456.785 121.5 457 123.5 457C125.5 457 127 457.215 127 457.5C127 457.8 129 458 132 458C135 458 137 458.2 137 458.5C137 458.796 138.834 459 141.5 459C144.167 459 146 459.204 146 459.5C146 459.775 146.9 460 148 460C149.1 460 150 460.225 150 460.5C150 460.775 150.9 461 152 461C153.1 461 154 461.225 154 461.5C154 461.775 154.9 462 156 462C157.1 462 158 462.225 158 462.5C158 462.775 158.9 463 160 463C161.1 463 162 463.225 162 463.5C162 463.775 162.675 464 163.5 464C164.325 464 165 464.225 165 464.5C165 464.775 165.9 465 167 465C168.1 465 169 465.225 169 465.5C169 465.775 169.9 466 171 466C172.1 466 173 466.225 173 466.5C173 466.775 173.675 467 174.5 467C175.325 467 176 467.225 176 467.5C176 467.775 176.9 468 178 468C179.1 468 180 468.225 180 468.5C180 468.775 180.675 469 181.5 469C182.325 469 183 469.225 183 469.5C183 469.775 183.9 470 185 470C186.1 470 187 470.225 187 470.5C187 470.775 187.675 471 188.5 471C189.325 471 190 471.225 190 471.5C190 471.775 190.9 472 192 472C193.1 472 194 472.225 194 472.5C194 472.775 194.675 473 195.5 473C196.325 473 197 473.225 197 473.5C197 473.775 197.45 474 198 474C198.55 474 199 474.225 199 474.5C199 474.775 199.9 475 201 475C202.1 475 203 475.225 203 475.5C203 475.775 203.675 476 204.5 476C205.325 476 206 476.225 206 476.5C206 476.775 206.675 477 207.5 477C208.325 477 209 477.225 209 477.5C209 477.775 209.45 478 210 478C210.55 478 211 478.225 211 478.5C211 478.775 211.45 479 212 479C212.55 479 213 479.225 213 479.5C213 479.775 213.45 480 214 480C214.55 480 215 480.225 215 480.5C215 480.778 216.334 481 218 481C219.667 481 221 481.222 221 481.5C221 481.775 221.45 482 222 482C222.55 482 223 482.225 223 482.5C223 482.775 223.45 483 224 483C224.55 483 225 483.225 225 483.5C225 483.775 225.9 484 227 484C228.1 484 229 484.225 229 484.5C229 484.775 229.9 485 231 485C232.1 485 233 485.225 233 485.5C233 485.775 233.675 486 234.5 486C235.325 486 236 486.225 236 486.5C236 486.775 236.675 487 237.5 487C238.325 487 239 487.225 239 487.5C239 487.775 239.45 488 240 488C240.55 488 241 488.225 241 488.5C241 488.775 241.45 489 242 489C242.55 489 243 489.225 243 489.5C243 489.775 243.675 490 244.5 490C245.325 490 246 490.225 246 490.5C246 490.775 246.626 491 247.39 491C248.206 491 249.077 491.413 249.5 492C249.897 492.55 250.621 493 251.111 493C251.6 493 252 493.225 252 493.5C252 493.775 252.675 494 253.5 494C254.325 494 255 494.225 255 494.5C255 494.775 255.401 495 255.89 495C256.379 495 257.104 495.45 257.5 496C257.897 496.55 258.621 497 259.111 497C259.6 497 260 497.225 260 497.5C260 497.775 260.45 498 261 498C261.55 498 262 498.225 262 498.5C262 498.775 262.675 499 263.5 499C264.325 499 265 499.225 265 499.5C265 499.775 265.675 500 266.5 500C267.325 500 268 500.225 268 500.5C268 500.775 268.9 501 270 501C271.1 501 272 501.225 272 501.5C272 501.775 272.401 502 272.89 502C273.379 502 274.104 502.45 274.5 503C274.897 503.55 275.621 504 276.111 504C276.6 504 277 504.225 277 504.5C277 504.775 277.45 505 278 505C278.55 505 279 505.225 279 505.5C279 505.775 279.45 506 280 506C280.778 506 281 506.334 281 507.5C281 508.325 281.225 509 281.5 509C281.775 509 282 510.125 282 511.5C282 512.875 282.225 514 282.5 514C282.792 514 283 515.667 283 518C283 520.333 283.209 522 283.5 522C283.811 522 284 524.833 284 529.5C284 534.167 284.189 537 284.5 537C284.808 537 285 539.5 285 543.5C285 547.5 284.808 550 284.5 550C284.225 550 284 550.45 284 551C284 551.55 283.775 552 283.5 552C283.225 552 283 552.355 283 552.789C283 553.224 282.1 554.443 281 555.5C279.9 556.557 279 557.679 279 557.994C279 558.308 277.875 559.661 276.5 561C275.125 562.339 274 563.787 274 564.218C274 564.648 273.775 565 273.5 565C273.225 565 273 565.45 273 566C273 567.829 275.294 567.233 277.763 564.763C278.994 563.533 280 562.281 280 561.981C280 561.681 281.125 560.339 282.5 559C283.875 557.661 285 556.263 285 555.893C285 555.523 285.45 554.896 286 554.5C286.55 554.104 287 553.379 287 552.89C287 552.401 287.225 552 287.5 552C287.775 552 288 551.344 288 550.542C288 549.74 288.282 548.952 288.625 548.792C289.125 548.559 289.125 548.441 288.625 548.208C287.886 547.863 287.774 545 288.5 545C288.811 545 289 542.167 289 537.5C289 532.833 288.811 530 288.5 530C288.2 530 288 528 288 525C288 522 287.8 520 287.5 520C287.225 520 287 518.875 287 517.5C287 516.125 286.775 515 286.5 515C286.225 515 286 513.875 286 512.5C286 511.125 285.775 510 285.5 510C285.225 510 285 508.875 285 507.5C285 506.125 284.775 505 284.5 505C284.225 505 284 504.325 284 503.5C284 502.675 283.775 502 283.5 502C283.225 502 283 501.55 283 501C283 500.45 282.775 500 282.5 500C282.225 500 282 499.55 282 499C282 498.45 281.775 498 281.5 498C281.225 498 281 497.66 281 497.243C281 496.406 272.818 488 272.002 488C271.307 488 259 475.653 259 474.956C259 474.651 258.325 473.771 257.5 473C256.675 472.229 256 471.289 256 470.91C256 470.531 255.55 469.896 255 469.5C254.45 469.104 254 468.379 254 467.889C254 467.4 253.775 467 253.5 467C253.225 467 253 466.55 253 466C253 465.45 252.775 465 252.5 465C252.225 465 252 464.55 252 464C252 463.45 251.775 463 251.5 463C251.225 463 251 462.325 251 461.5C251 460.675 250.775 460 250.5 460C250.225 460 250 459.55 250 459C250 458.45 249.775 458 249.5 458C249.225 458 249 457.325 249 456.5C249 455.675 248.775 455 248.5 455C248.225 455 248 454.325 248 453.5C248 452.675 247.775 452 247.5 452C247.225 452 247 451.1 247 450C247 448.9 246.775 448 246.5 448C246.225 448 246 447.1 246 446C246 444.9 245.775 444 245.5 444C245.225 444 245 442.875 245 441.5C245 440.125 244.775 439 244.5 439C244.215 439 244 437.5 244 435.5C244 433.5 243.786 432 243.5 432C243.18 432 243 427.5 243 419.5V407H249C252.667 407 255 407.194 255 407.5C255 407.817 258.667 408 265 408C271.334 408 275 408.183 275 408.5C275 408.823 280.834 409 291.5 409C302.167 409 308 408.823 308 408.5C308 408.2 310 408 313 408C316 408 318 407.8 318 407.5C318 407.222 319.334 407 321 407C322.667 407 324 406.778 324 406.5C324 406.225 324.579 406 325.286 406C326.444 406 328 405.017 328 404.285C328 404.128 325.525 404 322.5 404C319.167 404 317 404.197 317 404.5C317 404.829 304.5 405 280.5 405C256.5 405 244 405.171 244 405.5C244 405.775 243.775 406 243.5 406C243.209 406 243 404.333 243 402C243 399.667 243.209 398 243.5 398C243.803 398 244 395.833 244 392.5C244 389.167 244.197 387 244.5 387C244.778 387 245 385.666 245 384C245 381.123 245.052 381 246.267 381C247.046 381 248.201 381.668 249.267 382.733C250.938 384.404 251 384.602 251 388.233C251 390.411 250.789 392 250.5 392C250.225 392 250 392.625 250 393.389C250 394.205 249.587 395.076 249 395.5C248.45 395.896 248 396.621 248 397.111C248 397.6 247.775 398 247.5 398C247.225 398 247 398.4 247 398.889C247 399.379 246.55 400.104 246 400.5C244.812 401.357 244.671 403 245.786 403C246.75 403 248 401.811 248 400.896C248 400.524 248.45 399.896 249 399.5C249.55 399.104 250 398.379 250 397.889C250 397.4 250.225 397 250.5 397C250.775 397 251 396.325 251 395.5C251 394.675 251.225 394 251.5 394C251.775 394 252 393.325 252 392.5C252 391.675 252.225 391 252.5 391C252.778 391 253 389.666 253 388C253 386.334 252.778 385 252.5 385C252.225 385 252 384.653 252 384.228C252 383.227 249.773 381 248.773 381C248.348 381 248 380.775 248 380.5C248 380.225 247.647 380 247.215 380C246.457 380 245 378.872 245 378.285C245 378.128 245.45 378 246 378C246.55 378 247 377.775 247 377.5C247 377.201 248.921 377 251.761 377H256.522L259.261 379.739C260.768 381.246 262 382.821 262 383.239C262 383.658 262.225 384 262.5 384C262.775 384 263 384.675 263 385.5C263 386.325 263.225 387 263.5 387C263.797 387 264 388.833 264 391.5C264 394.167 263.797 396 263.5 396C263.225 396 263 396.9 263 398C263 399.1 262.775 400 262.5 400C262.225 400 262 400.45 262 401C262 401.55 261.775 402 261.5 402C261.225 402 261 402.225 261 402.5C261 402.775 261.675 403 262.5 403C263.667 403 264 402.778 264 402C264 401.45 264.225 401 264.5 401C264.775 401 265 400.325 265 399.5C265 398.675 265.225 398 265.5 398C265.8 398 266 396 266 393C266 390 265.8 388 265.5 388C265.225 388 265 387.325 265 386.5C265 385.675 264.775 385 264.5 385C264.225 385 264 384.55 264 384C264 383.45 263.775 383 263.5 383C263.225 383 263 382.648 263 382.217C263 381.787 261.875 380.339 260.5 379C259.125 377.661 258 376.438 258 376.283C258 376.127 259.575 376 261.5 376C264.667 376 265 375.905 265 375C265 374.222 264.667 374 263.5 374C262.675 374 262 374.225 262 374.5C262 374.785 260.5 375 258.5 375C256.5 375 255 374.785 255 374.5C255 374.225 255.225 374 255.5 374C255.775 374 256 373.569 256 373.042C256 372.515 256.282 371.983 256.625 371.86C256.969 371.737 257.091 371.466 256.896 371.256C256.701 371.047 255.65 371.803 254.56 372.938C252.962 374.6 252.232 375 250.789 375C249.805 375 249 375.225 249 375.5C249 375.775 248.325 376 247.5 376C246.675 376 246 375.775 246 375.5C246 375.225 246.225 375 246.5 375C246.775 375 247 374.569 247 374.042C247 373.515 247.282 372.983 247.625 372.86C247.989 372.73 248.065 372.452 247.807 372.194C247.549 371.936 247.27 372.012 247.14 372.375C246.72 373.553 246 373 246 371.5V370H249C250.667 370 252 369.778 252 369.5C252 369.184 255.5 369 261.5 369C267.5 369 271 368.816 271 368.5C271 368.187 274.167 368 279.5 368C284.834 368 288 367.813 288 367.5C288 367.178 282.667 367 273 367C263.334 367 258 367.178 258 367.5C258 367.803 255.834 368 252.5 368H247V365C247 362.333 247.111 362 248 362C248.55 362 249 362.225 249 362.5C249 362.778 250.334 363 252 363C253.667 363 255 362.778 255 362.5C255 362.225 255.401 362 255.89 362C256.379 362 257.104 361.55 257.5 361C258.078 360.198 258.795 360 261.111 360C262.704 360 264 360.225 264 360.5Z" stroke="black" stroke-linecap="round" stroke-linejoin="round"/>
</svg>
