<svg width="65" height="253" viewBox="0 0 65 253" fill="none" xmlns="http://www.w3.org/2000/svg">
<path d="M25.7915 2.98945C28.9873 2.36587 32.2431 2.42601 35.5108 2.42601C36.1682 2.42601 36.8255 2.42601 37.4829 2.42601C38.0148 2.42601 39.0242 2.04136 39.4393 2.15994C40.3246 2.41287 41.1611 3.83484 41.787 4.46066C42.3175 4.9912 43.6 5.83329 43.8842 6.3701C44.6303 7.77948 44.6668 9.10608 44.6668 10.7368C44.6668 13.4598 44.6668 16.1433 44.6668 18.7658C44.6668 19.6246 44.5161 20.2316 44.1659 21.0196C43.9002 21.6175 44.3065 22.3937 44.0407 22.9916C43.4228 24.382 44.4052 26.3361 43.6807 27.64C42.8998 29.0457 43.8216 32.0824 43.8216 33.697C43.8216 35.3062 44.385 36.9237 44.385 38.4863C44.385 40.9953 44.9485 43.609 44.9485 46.2336C44.9485 48.7781 45.5119 51.5018 45.5119 54.1218C45.5119 55.4537 45.7937 56.4902 45.7937 57.7842C45.7937 59.078 46.856 60.2085 46.9205 61.3057C46.9908 62.5005 48.0474 63.153 48.0474 64.4046C48.0474 65.9301 48.6741 66.7598 49.5812 67.9262C50.3021 68.853 50.3604 70.0426 51.1464 71.0251C51.8595 71.9165 52.2169 73.0675 52.8993 73.9206C53.8351 75.0903 53.599 76.7175 54.6679 77.7864C55.5183 78.6369 56.1448 79.6703 56.9999 80.5254C57.5812 81.1066 58.6895 82.5511 58.7528 83.3426C58.8148 84.1176 59.7115 86.4697 60.3023 86.9423C60.8507 87.381 61.6418 88.9544 61.8361 89.6343C62.1832 90.8493 61.6802 92.2611 62.1961 93.4219C63.2928 95.8895 62.9786 99.3896 62.9786 102.155C62.9786 105.279 63.2604 108.224 63.2604 111.296C63.2604 114.117 63.8238 116.725 63.8238 119.622C63.8238 122.842 63.7663 126.134 63.5264 129.373C63.2663 132.884 63.2604 136.374 63.2604 139.906C63.2604 141.521 63.5421 142.963 63.5421 144.554C63.5421 145.365 63.0895 148.214 63.6047 148.858C64.4548 149.921 63.5421 152.243 63.5421 153.491C63.5421 155.084 63.2604 156.504 63.2604 158.077C63.2604 162.068 63.2604 166.059 63.2604 170.05C63.2604 173.596 64.1055 177.065 64.1055 180.63C64.1055 183.786 63.8238 186.959 63.8238 190.037C63.8238 196.803 63.8238 203.57 63.8238 210.336C63.8238 213.341 63.8238 216.346 63.8238 219.351C63.8238 222.749 63.2604 226.131 63.2604 229.493C63.2604 234.392 63.5658 240.791 60.0988 244.644C58.2647 246.681 55.5809 247.501 53.2593 248.791C51.2848 249.888 48.2157 251.186 45.9345 251.186C44.6714 251.186 43.219 251.742 41.9904 252.015C40.6362 252.316 39.0092 252.313 37.6237 252.313C34.5992 252.313 31.6865 252.031 28.7652 252.031C27.7418 252.031 26.408 251.683 25.3689 251.452C24.4378 251.245 22.3445 251.414 21.6282 250.841C20.9552 250.303 19.3277 250.097 18.4667 249.715C17.1868 249.146 15.8976 248.741 14.6478 248.384C13.8637 248.16 13.4912 247.45 12.7071 247.226C12.4185 247.144 11.32 246.76 11.142 246.537C10.7381 246.033 8.23466 245.824 7.47958 245.489C6.71027 245.147 5.66197 243.669 4.9441 243.579C3.8842 243.447 2.40861 242.393 2.40861 241.216C2.40861 239.981 2.12688 238.757 2.12688 237.522C2.12688 236.858 1.67807 236.102 1.57909 235.409C1.45874 234.567 1.85116 233.38 1.50084 232.592C0.904864 231.251 1.28172 229.11 1.28172 227.662C1.28172 226.136 1 224.775 1 223.233C1 220 1.84516 217.111 1.84516 213.858C1.84516 210.512 2.40861 207.124 2.40861 203.794C2.40861 195.594 1.84516 187.592 1.84516 179.347C1.84516 177.698 1.84516 176.05 1.84516 174.401C1.84516 172.905 1.73471 170.299 2.346 168.923C2.8489 167.792 2.26345 166.362 2.75293 165.261C3.31464 163.997 3.43796 161.474 3.11291 160.174C2.29742 156.912 2.97205 152.605 2.97205 149.203C2.97205 146.145 2.69033 143.122 2.69033 140.188C2.69033 126.706 2.40861 113.521 2.40861 100.027C2.40861 97.1308 2.25787 94.0834 3.19116 91.3873C3.64355 90.0804 4.07256 87.9228 4.9441 86.9423C5.55372 86.2565 6.39019 84.6278 6.65007 83.7182C6.73971 83.4045 7.168 82.6012 7.33872 82.2939C7.58614 81.8486 7.83395 80.7427 8.18389 80.4627C9.21546 79.6375 10.0363 77.2169 10.5159 76.0178C10.9697 74.8834 11.7468 73.8901 12.2688 72.7154C12.5861 72.0016 12.985 71.2753 13.3957 70.6182C13.7296 70.084 13.9797 69.0978 14.3035 68.6931C16.0147 66.554 16.6626 63.287 17.7624 60.8675C18.5116 59.2193 18.3158 56.7882 19.171 55.2487C19.5473 54.5713 19.278 53.6115 19.5936 52.8541C19.8731 52.1832 20.3985 51.0437 20.4388 50.3186C20.5245 48.7747 21.4324 47.1282 21.5656 45.5293C21.7266 43.5983 22.4108 41.8565 22.4108 39.8949C22.4108 38.6463 22.4097 37.4189 22.8334 36.2325C23.0741 35.5585 22.9742 34.7813 22.9742 34.0727C22.9742 31.9853 23.8593 30.0658 23.8194 28.0313C23.8022 27.1525 23.3841 25.7451 23.0368 24.9637C22.6616 24.1194 22.9742 22.6539 22.9742 21.7396C22.9742 20.1814 22.4673 17.5303 23.1151 16.1051C23.7988 14.601 23.256 13.0259 23.256 11.4411C23.256 10.0155 22.9742 8.85149 22.9742 7.49699C22.9742 5.89613 22.8686 5.16395 23.8194 3.97547C24.5649 3.0436 25.9246 2.82504 26.7618 1.98777C27.7138 1.03575 29.1916 1.86257 30.299 1.86257C31.7396 1.86257 32.9886 1.34314 34.3839 1.03305C35.6769 0.745739 36.9159 2.42601 38.1872 2.42601" stroke="black" stroke-linecap="round" stroke-linejoin="round"/>
</svg>
