<svg width="69" height="238" viewBox="0 0 69 238" fill="none" xmlns="http://www.w3.org/2000/svg">
<path d="M24.302825387662228 2.797592892778521 C26.66866407381593 1.346623555906926, 29.896339360257404 0.6604121164898813, 32.63372947782343 0.767570405589921 M24.62715872948138 2.089488634803162 C27.5978973111153 1.6795180756819497, 30.696517888795125 1.323320768850226, 33.14152618946387 0.4221926333059996 M33.59843144809053 1.2280912535931454 C36.415148070502916 1.9824266229130973, 40.72207627553745 0.9476560812099637, 43.41642575710717 1.3940892702335415 M33.720471684286515 0.10200002238184824 C37.41387495562778 1.3735505527129992, 40.39307130089973 1.796966990105965, 44.436354666992955 1.9305067630410475 M42.86751717093921 1.6305811792124283 C46.585227258534246 19.6260789001892, 45.93826531554184 40.924512420168675, 45.318339873630485 65.0488588345351 M43.50875575656454 2.6512765669513585 C44.28129213251069 21.602233887839205, 45.38208567441404 42.44144729953033, 46.39187493971904 65.42752420585992 M47.33912363487878 66.79599381526685 C54.62648269906145 86.07075125377659, 61.04684078359104 110.54427055472996, 64.91673079007344 127.11261782776879 M46.41450820543278 63.892378405926095 C51.83496058899807 81.99219705663751, 57.16013293577855 99.25153209430711, 65.43651581911057 125.40873753855932 M65.55162124418361 123.71395945827163 C69.07195659334671 163.0422725270617, 68.77487239164816 197.71454239578847, 68.18986542530955 219.55483092961035 M65.36561393560626 125.9669828737859 C66.40617165194863 161.9887578204049, 66.36094843656896 200.80935018838812, 68.28954917141417 218.77466860588973 M67.770816248738 217.8078229169287 C69.19149449526496 223.55466187757654, 68.32603747669262 226.25720205061086, 67.69490796150936 231.81714236438467 M68.01518795461965 218.92614623636973 C68.09720557707311 223.22908698297252, 67.68991437642137 227.09788698427602, 67.18995152862377 231.6987268814531 M66.24987386046982 231.5678310725129 C65.61449089897614 232.46469690956985, 64.49558070428766 234.10068548898496, 61.50256690383014 235.62859285191874 M66.90057692447299 231.6063945523202 C65.28639476600209 233.53337936306966, 63.599881766623085 234.29747288328167, 61.92892214967609 235.6951167778318 M61.51354019724676 237.87934504086314 C49.322392327197385 237.67410245675353, 38.74868085791083 236.2287220716566, 14.72041338040681 237.81602116341583 M62.55798935824254 235.8139317117496 C44.25112122763539 236.18708497263634, 25.464872266523543 237.398517524986, 15.002402310163601 237.29172149251124 M14.007554070647029 237.90219907923168 C12.249626981042105 236.29172464061952, 10.198315323434556 236.2674012879664, 6.232966627903062 235.79715950702962 M14.478662731545212 236.709045888609 C12.082994324549428 237.0584304116225, 9.957861650596126 236.42365029401833, 5.7997696797583576 235.8996061064094 M6.827438743253419 235.90048966679117 C4.3402221852245795 234.31953351835148, 3.10849590978459 233.10036329603673, 1.1500641863107903 230.19372341293982 M5.953507134375329 235.74106082559473 C4.759778955498714 234.41495421010168, 3.863936214122024 233.29032571799212, 1.103531180415334 230.3386834645747 M0.664772897261575 228.8144496252027 C2.217086025547864 206.82682585534042, 2.183011669991551 180.1107627856745, 0.3117048858627671 136.56599705711312 M2.010914431811276 231.4052381082292 C2.293386557786526 205.66250906432742, 0.3745238548453351 180.1491811021267, 1.500087648069062 134.256531111554 M0.2642937848404563 133.92464200662874 C1.6793660663831238 127.14641866294552, 3.897545469256797 117.62730288960887, 8.30357114265988 109.78735212317001 M0.04295660497872977 134.75064529042157 C3.86494014985684 125.57064558229412, 5.2081245368822024 116.72590556651592, 6.664356433497637 110.28676958773875 M7.011780125040582 108.66527895222843 C9.676073406536197 104.07251566271118, 11.339646821797821 99.0724365092771, 14.494640687670787 89.9304804917514 M5.71904290446758 109.59632710144977 C10.844760773824994 102.24565708433589, 12.85079186392132 92.94684438467351, 16.090647218480537 87.9981159844293 M16.223973103107053 89.39402035450233 C16.68136139966295 80.18133605894386, 21.71725806007538 69.23710119507125, 20.371191587202052 65.88227175688807 M16.632156817725253 88.73078882054025 C16.501050003154738 84.35384457858838, 17.271552101847295 79.36736788851707, 20.572374046369738 66.23074511618879 M21.876330002836674 67.29778518959834 C23.500739274980315 45.633955474887244, 23.876113761810295 30.076362317865346, 22.459147677633275 1.1754601101269024 M22.01566762670609 65.50694715993451 C22.544660823042463 44.17586356988249, 24.953003468702544 20.3577626669859, 24.425441324285917 2.2566357496651253" fill="white" stroke="black"/>
</svg>
