<svg width="61" height="233" viewBox="0 0 61 233" fill="none" xmlns="http://www.w3.org/2000/svg">
<path d="M21.1677 2.39085C24.1368 2.39085 26.6657 1.86226 29.625 1.86226C30.9024 1.86226 32.1798 1.86226 33.4573 1.86226C35.0529 1.86226 36.7269 1.15464 38.3466 1.06939C38.6796 1.05187 39.9012 0.891363 40.1379 1.12812C40.4009 1.39105 40.1967 2.68101 40.1967 3.05157C40.1967 4.32898 40.1967 5.60638 40.1967 6.88379C40.1967 9.69151 40.461 12.3887 40.461 15.2824C40.461 17.9448 40.461 20.6073 40.461 23.2698C40.461 26.3298 40.9895 29.2553 40.9895 32.2557C40.9895 34.908 39.6681 37.5267 39.6681 40.1844C39.6681 42.7392 39.6681 45.294 39.6681 47.8488C39.6681 50.4315 39.9324 52.9971 39.9324 55.5133C39.9324 58.0265 41.1202 60.1139 41.2538 62.3848C41.3501 64.021 43.5989 66.3539 44.9539 67.2008C47.051 68.5115 47.0496 71.1492 48.4484 72.8977C49.9675 74.7966 50.9806 77.3557 52.6771 79.2407C53.4498 80.0992 53.8914 81.3144 54.4684 82.3241C54.992 83.2404 56.1537 83.874 56.6414 84.8495C57.8446 87.2559 58.3729 89.8685 59.4311 92.2497C60.3797 94.384 59.7542 97.9811 59.7542 100.311C59.7542 106.722 60.2828 112.927 60.2828 119.339C60.2828 125.059 60.0185 130.964 60.0185 136.768C60.0185 143.616 60.2828 150.419 60.2828 157.295C60.2828 160.588 60.2828 163.882 60.2828 167.176C60.2828 170.048 59.4899 173.151 59.4899 176.03C59.4899 178.933 60.0185 181.612 60.0185 184.487C60.0185 187.524 60.0185 190.654 60.0185 193.679C60.0185 199.633 60.2828 205.702 60.2828 211.709C60.2828 214.44 60.2828 217.171 60.2828 219.902C60.2828 222.276 60.5382 224.786 58.7557 226.568C57.3339 227.99 56.2207 230.347 53.9398 230.474C52.6246 230.547 51.5175 231.267 50.1076 231.267C49.2651 231.267 46.8778 231.149 46.2607 231.663C45.6365 232.183 42.6984 232.059 41.7824 232.059C40.4169 232.059 39.0514 232.059 37.6859 232.059C34.9991 232.059 32.4988 231.795 29.7572 231.795C27.1143 231.795 24.4714 231.795 21.8285 231.795C20.3749 231.795 18.9213 231.795 17.4677 231.795C16.4036 231.795 14.8171 231.908 13.8997 231.399C13.2443 231.035 11.0379 231.002 10.3318 231.002C9.29322 231.002 7.99793 230.241 7.01351 229.96C5.70648 229.586 5.07778 229.135 4.19441 228.154C3.56628 227.456 2.6674 225.735 2.6674 224.791C2.6674 223.712 2.13881 222.605 2.13881 221.429C2.13881 219.82 1.87452 218.126 1.87452 216.598C1.87452 214.018 1.61023 211.546 1.61023 208.934C1.61023 206.177 2.13881 203.52 2.13881 200.741C2.13881 197.634 1.34594 194.606 1.34594 191.491C1.34594 190.218 0.73149 188.782 1.14038 187.453C1.60434 185.945 1.61023 183.556 1.61023 181.976C1.61023 179.238 1.87452 176.551 1.87452 173.783C1.87452 170.436 1.87452 167.088 1.87452 163.74C1.87452 162.052 1.34594 160.49 1.34594 158.851C1.34594 156.869 1.34594 154.887 1.34594 152.904C1.34594 149.556 1.87452 146.042 1.87452 142.729C1.87452 137.426 1.34594 132.168 1.34594 126.872C1.34594 122.899 1.61023 118.87 1.61023 114.979C1.61023 111.521 2.25727 108.429 2.13881 104.994C2.03881 102.094 1.87452 99.158 1.87452 96.214C1.87452 94.9366 1.87452 93.6592 1.87452 92.3818C1.87452 90.6231 3.27941 89.294 3.46027 87.7567C3.61129 86.4731 5.59453 85.6439 6.22064 84.5705C6.47634 84.1322 6.858 83.5204 7.30716 83.2638C8.28046 82.7076 8.25975 80.5936 8.74608 79.5637C9.48416 78.0007 10.3007 76.6597 11.1247 75.2176C11.8004 74.0351 13.3466 73.2198 14.1494 72.1048C15.036 70.8733 15.7491 69.4885 16.6748 68.3314C17.3275 67.5155 18.1774 66.5877 18.5836 65.6738C19.7786 62.985 21.1677 60.8082 21.1677 57.745C21.1677 44.4823 21.6963 31.4061 21.6963 18.1161C21.6963 13.0526 21.432 7.95699 21.432 2.78728C21.432 0.717826 26.7703 2.12655 27.9072 2.12655C29.1778 2.12655 30.4709 2.19702 31.7394 2.12655C33.1447 2.04848 34.4804 1.33368 35.968 1.33368" stroke="black" stroke-linecap="round" stroke-linejoin="round"/>
</svg>
