<svg width="62" height="250" viewBox="0 0 62 250" fill="none" xmlns="http://www.w3.org/2000/svg">
<path d="M24.0697 0.175141C22.649 0.428136 21.6565 1.18712 20.1386 3.21107C19.2044 4.45658 19.0293 5.4491 19.1655 8.91317C19.2239 10.5868 19.3601 12.2605 19.4769 12.6108C19.8856 13.9341 20.158 20.3758 20.158 28.8024C20.158 42.9506 19.4964 49.9372 17.6086 55.756C16.5383 59.0839 14.1835 64.6108 13.3856 65.6812C13.152 65.9926 12.7044 66.6932 12.4125 67.2381C12.1011 67.7635 10.8751 69.8653 9.6685 71.9088C5.75681 78.545 5.13406 79.6737 4.29723 81.5225C2.02028 86.6603 0.794234 90.8639 0.405012 94.8728C0.229863 96.5854 0.152018 115.229 0.0547127 164.835C-0.00367059 202.026 -0.0231317 234.059 0.0352516 236.005L0.132557 239.547L1.00831 240.15C1.49483 240.461 2.23436 240.967 2.6625 241.259C3.90801 242.077 7.74185 243.925 9.86311 244.704C10.9335 245.093 12.1206 245.58 12.4904 245.794C14.1056 246.669 22.2014 248.518 26.0937 248.907C38.1401 250.114 53.4365 246.202 58.6521 240.578C59.9365 239.196 60.4814 238.087 60.7539 236.336C61.0847 234.234 61.3183 206.035 61.4545 151.699C61.5907 100.147 61.5518 96.8773 60.8512 92.4402C60.423 89.813 59.9171 88.0809 58.691 85.0839C57.1341 81.289 54.8766 76.8713 52.1715 72.3564C47.1311 63.9297 45.4769 60.018 43.8616 52.6423C43.161 49.5285 42.8691 47.2515 42.188 40.2845C41.7598 35.75 41.7209 34.3878 41.682 24.2096C41.6625 14.8293 41.7015 12.747 41.9739 10.9761C42.6356 6.55838 41.7404 3.46407 39.1131 1.08981L37.926 -8.42149e-06L31.3871 0.0194527C27.7868 0.0389138 24.4979 0.116758 24.0697 0.175141ZM39.4051 12.3773C39.95 12.4551 40.3586 12.6302 40.4365 12.8249C40.5143 13 40.6116 15.1407 40.6506 17.6123C40.7284 21.1347 40.6895 22.1467 40.4754 22.3997C40.2419 22.6916 39.8721 22.7111 36.8167 22.5359C34.9485 22.4386 30.6086 22.3803 27.164 22.4192L20.917 22.4776L20.7224 17.6123C20.6251 14.9267 20.5667 12.7276 20.5862 12.6886C20.8197 12.3383 37.1086 12.0659 39.4051 12.3773ZM23.1356 23.9761C23.2329 24.1318 23.2718 26.7006 23.194 30.1063C23.0967 36.1587 22.9993 36.762 22.3377 36.2171C22.0068 35.9446 21.8511 35.0105 21.8317 33.3758C21.8122 30.9821 22.1431 24.2291 22.2793 23.9761C22.3766 23.8593 22.5517 23.7425 22.688 23.7425C22.8437 23.7425 23.0383 23.8593 23.1356 23.9761ZM26.5802 28.783L27.164 29.3863L26.658 29.9117C26.1715 30.4372 26.152 30.5539 26.0742 33.2201C26.0353 34.9132 25.9185 36.0809 25.7823 36.2171C25.432 36.5674 25.2958 35.1273 25.3736 31.3518C25.432 27.518 25.4125 27.5569 26.5802 28.783ZM24.4395 35.6138L24.3032 36.2949L24.1281 35.7111C23.9335 35.0884 24.0892 30.0479 24.3227 29.2111C24.4979 28.5689 24.6146 34.6991 24.4395 35.6138ZM41.2539 37.4626C41.3317 37.5405 41.4485 39 41.5069 40.7321C41.5847 42.4641 41.7404 44.8384 41.8766 46.0255C42.4215 51.1827 42.4021 51.027 42.1101 51.1243C41.682 51.2994 21.423 51.027 20.664 50.8324L19.9829 50.6767L20.0413 49.509C20.0607 48.8863 20.1775 47.9132 20.2748 47.3878C20.3721 46.8429 20.5667 44.6438 20.664 42.4641C20.8586 38.7665 21.0338 37.6183 21.4425 37.3653C21.676 37.2291 41.1176 37.3264 41.2539 37.4626ZM49.194 90.8444C49.8946 91.3115 49.9724 92.5764 49.3497 93.5495C48.9605 94.1722 48.8048 94.1139 48.3961 93.2186C47.9485 92.2261 47.7344 92.4207 47.5203 93.9971C47.3452 95.2037 47.0143 95.7097 46.664 95.3594C46.5473 95.2426 46.4694 94.2695 46.4694 93.1797C46.45 91.2531 46.4694 91.1752 46.9365 90.9417C47.4619 90.6692 48.8437 90.6109 49.194 90.8444ZM44.8736 92.3818L45.6326 92.4986L45.5353 94.4252C45.4769 95.4761 45.3796 96.3908 45.3212 96.4687C45.0877 96.6827 44.6012 96.0989 44.3871 95.3204C44.2314 94.7172 44.1146 94.5809 43.8616 94.6782C43.2 94.9312 43.1416 94.8534 43.0832 93.8803C43.0443 93.1603 43.1221 92.7905 43.3362 92.557C43.6865 92.2067 43.8033 92.2067 44.8736 92.3818ZM2.54573 113.594C4.37508 114.276 7.25532 114.957 9.47388 115.19C19.691 116.319 22.7853 116.455 34.3841 116.319C45.944 116.183 49.2913 115.949 55.3048 114.918C56.7644 114.665 58.4185 114.276 59.0024 114.061C59.5862 113.847 60.1311 113.731 60.2284 113.828C60.6566 114.256 60.7539 119.355 60.7539 145.783V174.138L59.7224 174.994C56.7644 177.505 52.8138 179.315 47.8317 180.424C46.4694 180.735 45.2823 181.027 45.2045 181.066C45.1266 181.124 44.0757 181.3 42.8497 181.475C39.4051 181.981 28.0203 182.195 24.2643 181.844C21.0143 181.533 16.5577 180.91 14.6311 180.502C13.9305 180.346 13.0158 180.171 12.5877 180.093C9.7658 179.606 4.66699 177.096 1.92298 174.819L0.794235 173.885L0.755312 143.37C0.71639 116.319 0.755312 112.874 1.00831 112.991C1.164 113.05 1.86459 113.322 2.54573 113.594Z" fill="#0C0C0C"/>
</svg>
